<?xml version="1.0" encoding="UTF-8" standalone="no"?>
<!-- Created with Inkscape (http://www.inkscape.org/) -->

<svg
   width="1180px"
   height="1180px"
   viewBox="0 0 1180 1180"
   version="1.1"
   id="SVGRoot"
   sodipodi:docname="crab.svg"
   inkscape:version="1.1.2 (0a00cf5339, 2022-02-04)"
   xmlns:inkscape="http://www.inkscape.org/namespaces/inkscape"
   xmlns:sodipodi="http://sodipodi.sourceforge.net/DTD/sodipodi-0.dtd"
   xmlns="http://www.w3.org/2000/svg"
   xmlns:svg="http://www.w3.org/2000/svg">
  <sodipodi:namedview
     id="namedview893"
     pagecolor="#505050"
     bordercolor="#eeeeee"
     borderopacity="1"
     inkscape:pageshadow="0"
     inkscape:pageopacity="0"
     inkscape:pagecheckerboard="0"
     inkscape:document-units="px"
     showgrid="false"
     inkscape:zoom="1.5300109"
     inkscape:cx="167.31907"
     inkscape:cy="160.12958"
     inkscape:window-width="1920"
     inkscape:window-height="1011"
     inkscape:window-x="1920"
     inkscape:window-y="32"
     inkscape:window-maximized="1"
     inkscape:current-layer="layer1"
     inkscape:lockguides="false" />
  <defs
     id="defs888">
    <inkscape:path-effect
       effect="fillet_chamfer"
       id="path-effect2916"
       is_visible="true"
       lpeversion="1"
       satellites_param="F,0,0,1,0,25.700787,0,1 @ F,0,0,1,0,25.700787,0,1 @ F,0,0,1,0,25.700787,0,1 @ F,0,0,1,0,25.700787,0,1"
       unit="mm"
       method="auto"
       mode="F"
       radius="6.8"
       chamfer_steps="1"
       flexible="false"
       use_knot_distance="true"
       apply_no_radius="true"
       apply_with_radius="true"
       only_selected="false"
       hide_knots="false" />
    <inkscape:path-effect
       effect="fillet_chamfer"
       id="path-effect2916-6"
       is_visible="true"
       lpeversion="1"
       satellites_param="F,0,0,1,0,25.700787,0,1 @ F,0,0,1,0,25.700787,0,1 @ F,0,0,1,0,25.700787,0,1 @ F,0,0,1,0,25.700787,0,1"
       unit="mm"
       method="auto"
       mode="F"
       radius="6.8"
       chamfer_steps="1"
       flexible="false"
       use_knot_distance="true"
       apply_no_radius="true"
       apply_with_radius="true"
       only_selected="false"
       hide_knots="false" />
    <inkscape:path-effect
       effect="fillet_chamfer"
       id="path-effect2916-61"
       is_visible="true"
       lpeversion="1"
       satellites_param="F,0,0,1,0,25.700787,0,1 @ F,0,0,1,0,25.700787,0,1 @ F,0,0,1,0,25.700787,0,1 @ F,0,0,1,0,25.700787,0,1"
       unit="mm"
       method="auto"
       mode="F"
       radius="6.8"
       chamfer_steps="1"
       flexible="false"
       use_knot_distance="true"
       apply_no_radius="true"
       apply_with_radius="true"
       only_selected="false"
       hide_knots="false" />
    <inkscape:path-effect
       effect="fillet_chamfer"
       id="path-effect2916-6-8"
       is_visible="true"
       lpeversion="1"
       satellites_param="F,0,0,1,0,25.700787,0,1 @ F,0,0,1,0,25.700787,0,1 @ F,0,0,1,0,25.700787,0,1 @ F,0,0,1,0,25.700787,0,1"
       unit="mm"
       method="auto"
       mode="F"
       radius="6.8"
       chamfer_steps="1"
       flexible="false"
       use_knot_distance="true"
       apply_no_radius="true"
       apply_with_radius="true"
       only_selected="false"
       hide_knots="false" />
  </defs>
  <g
     inkscape:label="Layer 1"
     inkscape:groupmode="layer"
     id="layer1">
    <ellipse
       style="fill:#d40000;fill-opacity:1;stroke:none;stroke-width:0.365655"
       id="path1090"
       cx="188.97636"
       cy="173.85829"
       rx="113.38583"
       ry="94.48819" />
    <rect
       style="fill:#d40000;fill-opacity:1;stroke:none;stroke-width:4.92186;stroke-miterlimit:4;stroke-dasharray:none;stroke-opacity:1"
       id="rect7609"
       width="30.236221"
       height="105.2272"
       x="219.21262"
       y="9.4551239" />
    <rect
       style="fill:#d40000;fill-opacity:1;stroke:none;stroke-width:4.92186;stroke-miterlimit:4;stroke-dasharray:none;stroke-opacity:1"
       id="rect7609-5"
       width="30.236221"
       height="105.2272"
       x="128.50392"
       y="15.697342" />
    <path
       id="path1092-3"
       style="fill:#aa0000;fill-opacity:1;stroke:none;stroke-width:3.77953;stroke-miterlimit:4;stroke-dasharray:none;stroke-opacity:1"
       d="m 326.92842,79.370094 a 75.590553,75.590553 0 0 0 -75.58984,75.591786 75.590553,75.590553 0 0 0 75.58984,75.58985 75.590553,75.590553 0 0 0 50.6875,-19.67187 l -24.23046,-55.91798 24.27539,-56.021476 a 75.590553,75.590553 0 0 0 -50.73243,-19.57031 z" />
    <path
       id="path1092-3-5"
       style="fill:#aa0000;fill-opacity:1;stroke:none;stroke-width:3.77953;stroke-miterlimit:4;stroke-dasharray:none;stroke-opacity:1"
       d="M 50.732426,230.55173 A 75.590553,75.590553 0 0 0 126.32226,154.95994 75.590553,75.590553 0 0 0 50.732426,79.370094 75.590553,75.590553 0 0 0 0.04493,99.041974 L 24.275389,154.95994 0,210.98143 a 75.590553,75.590553 0 0 0 50.732426,19.5703 z" />
    <path
       style="fill:#ffaaaa;fill-opacity:1;stroke:none;stroke-width:3.86667;stroke-miterlimit:4;stroke-dasharray:none;stroke-opacity:1"
       id="rect2540"
       width="68.031494"
       height="68.031494"
       x="-177.63777"
       y="0"
       transform="scale(-1,1)"
       ry="0"
       sodipodi:type="rect"
       d="m -151.93698,0 h 16.62992 a 25.700787,25.700787 45 0 1 25.70078,25.700787 l 0,16.62992 a 25.700787,25.700787 135 0 1 -25.70078,25.700787 h -16.62992 A 25.700787,25.700787 45 0 1 -177.63777,42.330707 V 25.700787 A 25.700787,25.700787 135 0 1 -151.93698,0 Z"
       inkscape:path-effect="#path-effect2916" />
    <ellipse
       style="fill:#d40000;fill-opacity:1;stroke:none;stroke-width:3.28516;stroke-miterlimit:4;stroke-dasharray:none;stroke-opacity:1"
       id="path7376"
       cx="243.19933"
       cy="76.538567"
       rx="18.897638"
       ry="56.692913"
       transform="rotate(45)" />
    <ellipse
       style="fill:#d40000;fill-opacity:1;stroke:none;stroke-width:3.28516;stroke-miterlimit:4;stroke-dasharray:none;stroke-opacity:1"
       id="path7376-36"
       cx="325.02609"
       cy="-117.85564"
       rx="18.897638"
       ry="56.692913"
       transform="rotate(90)" />
    <ellipse
       style="fill:#d40000;fill-opacity:1;stroke:none;stroke-width:3.28516;stroke-miterlimit:4;stroke-dasharray:none;stroke-opacity:1"
       id="path7376-3"
       cx="-24.052752"
       cy="-343.79074"
       rx="18.897638"
       ry="56.692913"
       transform="rotate(135)" />
    <path
       style="fill:#ffaaaa;fill-opacity:1;stroke:none;stroke-width:3.86667;stroke-miterlimit:4;stroke-dasharray:none;stroke-opacity:1"
       id="rect2540-7"
       width="68.030998"
       height="68.031494"
       x="-268.34647"
       y="0"
       transform="scale(-1,1)"
       ry="0"
       sodipodi:type="rect"
       inkscape:path-effect="#path-effect2916-6"
       d="m -242.64568,0 h 16.62943 a 25.700787,25.700787 45 0 1 25.70078,25.700787 v 16.62992 a 25.700787,25.700787 135 0 1 -25.70078,25.700787 h -16.62943 A 25.700787,25.700787 45 0 1 -268.34647,42.330707 V 25.700787 A 25.700787,25.700787 135 0 1 -242.64568,0 Z" />
    <path
       id="path7740"
       style="fill:#c8b7b7;fill-opacity:1;stroke:none;stroke-width:4.05656;stroke-miterlimit:4;stroke-dasharray:none;stroke-opacity:1"
       d="m 152.01492,108.94155 a 37.795277,37.795277 0 0 0 37.79493,37.79688 37.795277,37.795277 0 0 0 37.79492,-37.79688 z" />
  </g>
</svg>
