<?xml version="1.0" encoding="UTF-8" standalone="no"?>
<!-- Created with Inkscape (http://www.inkscape.org/) -->

<svg
   width="400px"
   height="400px"
   viewBox="0 0 400 400"
   version="1.1"
   id="SVGRoot"
   sodipodi:docname="Crab_cutout.svg"
   inkscape:version="1.1.2 (0a00cf5339, 2022-02-04)"
   xmlns:inkscape="http://www.inkscape.org/namespaces/inkscape"
   xmlns:sodipodi="http://sodipodi.sourceforge.net/DTD/sodipodi-0.dtd"
   xmlns="http://www.w3.org/2000/svg"
   xmlns:svg="http://www.w3.org/2000/svg">
  <sodipodi:namedview
     id="namedview8249"
     pagecolor="#505050"
     bordercolor="#eeeeee"
     borderopacity="1"
     inkscape:pageshadow="0"
     inkscape:pageopacity="0"
     inkscape:pagecheckerboard="0"
     inkscape:document-units="px"
     showgrid="false"
     inkscape:zoom="2.3656177"
     inkscape:cx="249.40632"
     inkscape:cy="229.11563"
     inkscape:window-width="1920"
     inkscape:window-height="1011"
     inkscape:window-x="1920"
     inkscape:window-y="32"
     inkscape:window-maximized="1"
     inkscape:current-layer="layer1" />
  <defs
     id="defs8244" />
  <g
     inkscape:label="Layer 1"
     inkscape:groupmode="layer"
     id="layer1">
    <path
       id="path1090-7"
       style="fill:none;fill-opacity:1;stroke:#000000;stroke-width:0.1;stroke-opacity:1;stroke-miterlimit:4;stroke-dasharray:none"
       d="m 146.47755,65.827151 a 25.700787,25.700787 0 0 0 -25.70118,25.70117 v 16.628909 a 25.700787,25.700787 0 0 0 18.89649,24.7168 v 26.94531 a 113.38583,94.48819 0 0 0 -19.39453,13.13672 75.590553,75.590553 0 0 0 -58.376967,-27.75782 75.590553,75.590553 0 0 0 -50.6875,19.67188 l 24.23047,55.91797 -24.27539,56.02148 a 75.590553,75.590553 0 0 0 50.73242,19.57031 75.590553,75.590553 0 0 0 39.298837,-11.04492 113.38583,94.48819 0 0 0 3.50391,5.34961 18.897638,56.692913 45 0 0 -15.775397,41.32031 18.897638,56.692913 45 0 0 43.001957,-17.14257 113.38583,94.48819 0 0 0 68.21484,19.31054 113.38583,94.48819 0 0 0 68.21485,-19.31054 56.692913,18.897638 45 0 0 43.00195,17.14257 56.692913,18.897638 45 0 0 -15.75586,-41.34765 113.38583,94.48819 0 0 0 3.45703,-5.27735 75.590553,75.590553 0 0 0 39.03516,11 75.590553,75.590553 0 0 0 50.6875,-19.67187 l -24.23047,-55.91797 24.27539,-56.02148 a 75.590553,75.590553 0 0 0 -50.73242,-19.57032 75.590553,75.590553 0 0 0 -58.125,27.42188 113.38583,94.48819 0 0 0 -19.35547,-12.84375 v -26.8418 a 25.700787,25.700787 0 0 0 18.89844,-24.77734 V 91.528321 a 25.700787,25.700787 0 0 0 -25.70117,-25.70117 h -16.63086 a 25.700787,25.700787 0 0 0 -25.69922,25.70117 v 16.628909 a 25.700787,25.700787 0 0 0 18.89648,24.7168 v 15.76953 a 113.38583,94.48819 0 0 0 -30.23633,-3.44532 113.38583,94.48819 0 0 0 -30.23632,3.51758 v -15.78125 a 25.700787,25.700787 0 0 0 18.89843,-24.77734 V 91.528321 a 25.700787,25.700787 0 0 0 -25.70117,-25.70117 z" />
  </g>
</svg>
