<?xml version="1.0" encoding="UTF-8" standalone="no"?>
<!-- Created with Inkscape (http://www.inkscape.org/) -->

<svg
   width="400px"
   height="400px"
   viewBox="0 0 400 400"
   version="1.1"
   id="SVGRoot"
   sodipodi:docname="Crab_printscreen.svg"
   inkscape:version="1.1.2 (0a00cf5339, 2022-02-04)"
   xmlns:inkscape="http://www.inkscape.org/namespaces/inkscape"
   xmlns:sodipodi="http://sodipodi.sourceforge.net/DTD/sodipodi-0.dtd"
   xmlns="http://www.w3.org/2000/svg"
   xmlns:svg="http://www.w3.org/2000/svg">
  <sodipodi:namedview
     id="namedview8249"
     pagecolor="#505050"
     bordercolor="#eeeeee"
     borderopacity="1"
     inkscape:pageshadow="0"
     inkscape:pageopacity="0"
     inkscape:pagecheckerboard="0"
     inkscape:document-units="px"
     showgrid="false"
     inkscape:zoom="1.4523675"
     inkscape:cx="110.16495"
     inkscape:cy="205.18223"
     inkscape:window-width="1920"
     inkscape:window-height="1011"
     inkscape:window-x="1920"
     inkscape:window-y="32"
     inkscape:window-maximized="1"
     inkscape:current-layer="g861" />
  <defs
     id="defs8244">
    <inkscape:path-effect
       effect="fillet_chamfer"
       id="path-effect2916"
       is_visible="true"
       lpeversion="1"
       satellites_param="F,0,0,1,0,25.700787,0,1 @ F,0,0,1,0,25.700787,0,1 @ F,0,0,1,0,25.700787,0,1 @ F,0,0,1,0,25.700787,0,1"
       unit="mm"
       method="auto"
       mode="F"
       radius="6.8"
       chamfer_steps="1"
       flexible="false"
       use_knot_distance="true"
       apply_no_radius="true"
       apply_with_radius="true"
       only_selected="false"
       hide_knots="false" />
    <inkscape:path-effect
       effect="fillet_chamfer"
       id="path-effect2916-6"
       is_visible="true"
       lpeversion="1"
       satellites_param="F,0,0,1,0,25.700787,0,1 @ F,0,0,1,0,25.700787,0,1 @ F,0,0,1,0,25.700787,0,1 @ F,0,0,1,0,25.700787,0,1"
       unit="mm"
       method="auto"
       mode="F"
       radius="6.8"
       chamfer_steps="1"
       flexible="false"
       use_knot_distance="true"
       apply_no_radius="true"
       apply_with_radius="true"
       only_selected="false"
       hide_knots="false" />
  </defs>
  <g
     inkscape:label="Layer 1"
     inkscape:groupmode="layer"
     id="layer1">
    <g
       id="g861"
       transform="translate(62.19383,220.78878)"
       style="stroke:#000000;stroke-opacity:1">
      <path
         id="path1090"
         style="fill:none;fill-opacity:1;stroke:#000000;stroke-width:3;stroke-miterlimit:4;stroke-dasharray:none;stroke-dashoffset:0;stroke-opacity:1"
         d="m 139.67383,132.78125 v 27.03906 a 113.38583,94.48819 0 0 0 -19.30274,13.1875 75.590553,75.590553 0 0 1 17.1211,47.78125 75.590553,75.590553 0 0 1 -36.34961,64.45117 113.38583,94.48819 0 0 0 3.56054,5.44532 18.897638,56.692913 45 0 0 -15.773432,41.32031 18.897638,56.692913 45 0 0 43.001952,-17.14258 113.38583,94.48819 0 0 0 68.21484,19.31055 113.38583,94.48819 0 0 0 68.21485,-19.31055 56.692913,18.897638 45 0 0 43.00195,17.14258 56.692913,18.897638 45 0 0 -15.75586,-41.34766 113.38583,94.48819 0 0 0 3.45117,-5.27929 75.590553,75.590553 0 0 1 -36.54882,-64.58985 75.590553,75.590553 0 0 1 17.25,-47.96679 113.38583,94.48819 0 0 0 -19.14063,-13.04493 v -26.87109 a 25.700787,25.700787 0 0 1 -6.80273,0.95313 h -16.63086 a 25.700787,25.700787 0 0 1 -6.80274,-1.07813 v 15.86328 a 113.38583,94.48819 0 0 0 -30.23633,-3.44726 113.38583,94.48819 0 0 0 -30.23632,3.51757 v -15.80859 a 25.700787,25.700787 0 0 1 -6.80274,0.95313 h -16.63086 a 25.700787,25.700787 0 0 1 -6.80273,-1.07813 z"
         transform="translate(-62.19383,-220.78878)" />
      <path
         id="path1092-3"
         style="fill:none;fill-opacity:1;stroke:#000000;stroke-width:3;stroke-miterlimit:4;stroke-dasharray:none;stroke-dashoffset:0;stroke-opacity:1"
         d="m 61.902344,145.19922 a 75.590553,75.590553 0 0 0 -50.6875,19.67187 l 24.230468,55.91797 -24.27539,56.02149 a 75.590553,75.590553 0 0 0 50.732422,19.56836 75.590553,75.590553 0 0 0 75.589846,-75.58985 75.590553,75.590553 0 0 0 -75.589846,-75.58984 z m 276.195316,0 a 75.590553,75.590553 0 0 0 -75.58789,75.58984 75.590553,75.590553 0 0 0 75.58789,75.58985 75.590553,75.590553 0 0 0 50.6875,-19.67188 l -24.22852,-55.91797 24.27539,-56.02148 a 75.590553,75.590553 0 0 0 -50.73437,-19.56836 z"
         transform="translate(-62.19383,-220.78878)" />
      <path
         id="rect2540"
         style="fill:none;fill-opacity:1;stroke:#000000;stroke-width:3;stroke-miterlimit:4;stroke-dasharray:none;stroke-dashoffset:0;stroke-opacity:1"
         d="M 146.47656,65.828125 A 25.700787,25.700787 0 0 0 120.77734,91.529297 V 108.1582 a 25.700787,25.700787 0 0 0 25.69922,25.70118 h 16.63086 A 25.700787,25.700787 0 0 0 188.80859,108.1582 V 91.529297 A 25.700787,25.700787 0 0 0 163.10742,65.828125 Z m 90.70899,0 A 25.700787,25.700787 0 0 0 211.48438,91.529297 V 108.1582 a 25.700787,25.700787 0 0 0 25.70117,25.70118 h 16.63086 A 25.700787,25.700787 0 0 0 279.51758,108.1582 V 91.529297 A 25.700787,25.700787 0 0 0 253.81641,65.828125 Z"
         transform="translate(-62.19383,-220.78878)" />
      <path
         id="path7740"
         style="fill:none;fill-opacity:1;stroke:#000000;stroke-width:3;stroke-miterlimit:4;stroke-dasharray:none;stroke-dashoffset:0;stroke-opacity:1"
         d="m 100.9913,-46.019075 a 37.795277,37.795277 0 0 0 37.79493,37.7968702 37.795277,37.795277 0 0 0 37.79492,-37.7968702 z" />
    </g>
  </g>
</svg>
