ISO-10303-21;
HEADER;
FILE_DESCRIPTION(('KiCad electronic assembly'),'2;1');
FILE_NAME('Low3xD_BP.step','2026-06-11T18:38:48',('Pcbnew'),('Kicad'),
  'Open CASCADE STEP processor 7.5','KiCad to STEP converter','Unknown'
  );
FILE_SCHEMA(('AUTOMOTIVE_DESIGN { 1 0 10303 214 1 1 1 1 }'));
ENDSEC;
DATA;
#1 = APPLICATION_PROTOCOL_DEFINITION('international standard',
  'automotive_design',2000,#2);
#2 = APPLICATION_CONTEXT(
  'core data for automotive mechanical design processes');
#3 = SHAPE_DEFINITION_REPRESENTATION(#4,#10);
#4 = PRODUCT_DEFINITION_SHAPE('','',#5);
#5 = PRODUCT_DEFINITION('design','',#6,#9);
#6 = PRODUCT_DEFINITION_FORMATION('','',#7);
#7 = PRODUCT('Low3xD_BP 1','Low3xD_BP 1','',(#8));
#8 = PRODUCT_CONTEXT('',#2,'mechanical');
#9 = PRODUCT_DEFINITION_CONTEXT('part definition',#2,'design');
#10 = SHAPE_REPRESENTATION('',(#11,#15),#19);
#11 = AXIS2_PLACEMENT_3D('',#12,#13,#14);
#12 = CARTESIAN_POINT('',(0.,0.,0.));
#13 = DIRECTION('',(0.,0.,1.));
#14 = DIRECTION('',(1.,0.,-0.));
#15 = AXIS2_PLACEMENT_3D('',#16,#17,#18);
#16 = CARTESIAN_POINT('',(0.,0.,0.));
#17 = DIRECTION('',(0.,0.,1.));
#18 = DIRECTION('',(1.,0.,-0.));
#19 = ( GEOMETRIC_REPRESENTATION_CONTEXT(3) 
GLOBAL_UNCERTAINTY_ASSIGNED_CONTEXT((#23)) GLOBAL_UNIT_ASSIGNED_CONTEXT(
(#20,#21,#22)) REPRESENTATION_CONTEXT('Context #1',
  '3D Context with UNIT and UNCERTAINTY') );
#20 = ( LENGTH_UNIT() NAMED_UNIT(*) SI_UNIT(.MILLI.,.METRE.) );
#21 = ( NAMED_UNIT(*) PLANE_ANGLE_UNIT() SI_UNIT($,.RADIAN.) );
#22 = ( NAMED_UNIT(*) SI_UNIT($,.STERADIAN.) SOLID_ANGLE_UNIT() );
#23 = UNCERTAINTY_MEASURE_WITH_UNIT(LENGTH_MEASURE(1.E-07),#20,
  'distance_accuracy_value','confusion accuracy');
#24 = PRODUCT_RELATED_PRODUCT_CATEGORY('part',$,(#7));
#25 = ADVANCED_BREP_SHAPE_REPRESENTATION('',(#11,#26),#1930);
#26 = MANIFOLD_SOLID_BREP('',#27);
#27 = CLOSED_SHELL('',(#28,#70,#101,#132,#600,#1068,#1085,#1102,#1119,
    #1136,#1153,#1170,#1187,#1204,#1221,#1238,#1255,#1272,#1289,#1306,
    #1323,#1340,#1357,#1374,#1391,#1408,#1425,#1442,#1459,#1476,#1493,
    #1510,#1527,#1544,#1561,#1578,#1595,#1612,#1629,#1646,#1663,#1680,
    #1697,#1714,#1731,#1748,#1760,#1777,#1794,#1811,#1828,#1845,#1862,
    #1879,#1896,#1913));
#28 = ADVANCED_FACE('',(#29),#65,.T.);
#29 = FACE_BOUND('',#30,.T.);
#30 = EDGE_LOOP('',(#31,#41,#50,#58));
#31 = ORIENTED_EDGE('',*,*,#32,.T.);
#32 = EDGE_CURVE('',#33,#35,#37,.T.);
#33 = VERTEX_POINT('',#34);
#34 = CARTESIAN_POINT('',(165.34375,-50.875,0.));
#35 = VERTEX_POINT('',#36);
#36 = CARTESIAN_POINT('',(165.34375,-50.875,1.51));
#37 = LINE('',#38,#39);
#38 = CARTESIAN_POINT('',(165.34375,-50.875,0.));
#39 = VECTOR('',#40,1.);
#40 = DIRECTION('',(0.,0.,1.));
#41 = ORIENTED_EDGE('',*,*,#42,.T.);
#42 = EDGE_CURVE('',#35,#43,#45,.T.);
#43 = VERTEX_POINT('',#44);
#44 = CARTESIAN_POINT('',(166.5,-52.03125,1.51));
#45 = CIRCLE('',#46,1.156298539074);
#46 = AXIS2_PLACEMENT_3D('',#47,#48,#49);
#47 = CARTESIAN_POINT('',(165.34370146194,-52.03129853805,1.51));
#48 = DIRECTION('',(0.,0.,-1.));
#49 = DIRECTION('',(4.19770965942E-05,0.999999999119,0.));
#50 = ORIENTED_EDGE('',*,*,#51,.F.);
#51 = EDGE_CURVE('',#52,#43,#54,.T.);
#52 = VERTEX_POINT('',#53);
#53 = CARTESIAN_POINT('',(166.5,-52.03125,0.));
#54 = LINE('',#55,#56);
#55 = CARTESIAN_POINT('',(166.5,-52.03125,0.));
#56 = VECTOR('',#57,1.);
#57 = DIRECTION('',(0.,0.,1.));
#58 = ORIENTED_EDGE('',*,*,#59,.F.);
#59 = EDGE_CURVE('',#33,#52,#60,.T.);
#60 = CIRCLE('',#61,1.156298539074);
#61 = AXIS2_PLACEMENT_3D('',#62,#63,#64);
#62 = CARTESIAN_POINT('',(165.34370146194,-52.03129853805,0.));
#63 = DIRECTION('',(0.,0.,-1.));
#64 = DIRECTION('',(4.19770965942E-05,0.999999999119,0.));
#65 = CYLINDRICAL_SURFACE('',#66,1.156298539074);
#66 = AXIS2_PLACEMENT_3D('',#67,#68,#69);
#67 = CARTESIAN_POINT('',(165.34370146194,-52.03129853805,0.));
#68 = DIRECTION('',(0.,0.,-1.));
#69 = DIRECTION('',(4.19770965942E-05,0.999999999119,0.));
#70 = ADVANCED_FACE('',(#71),#96,.T.);
#71 = FACE_BOUND('',#72,.T.);
#72 = EDGE_LOOP('',(#73,#83,#89,#90));
#73 = ORIENTED_EDGE('',*,*,#74,.T.);
#74 = EDGE_CURVE('',#75,#77,#79,.T.);
#75 = VERTEX_POINT('',#76);
#76 = CARTESIAN_POINT('',(149.15625,-50.875,0.));
#77 = VERTEX_POINT('',#78);
#78 = CARTESIAN_POINT('',(149.15625,-50.875,1.51));
#79 = LINE('',#80,#81);
#80 = CARTESIAN_POINT('',(149.15625,-50.875,0.));
#81 = VECTOR('',#82,1.);
#82 = DIRECTION('',(0.,0.,1.));
#83 = ORIENTED_EDGE('',*,*,#84,.T.);
#84 = EDGE_CURVE('',#77,#35,#85,.T.);
#85 = LINE('',#86,#87);
#86 = CARTESIAN_POINT('',(149.15625,-50.875,1.51));
#87 = VECTOR('',#88,1.);
#88 = DIRECTION('',(1.,0.,0.));
#89 = ORIENTED_EDGE('',*,*,#32,.F.);
#90 = ORIENTED_EDGE('',*,*,#91,.F.);
#91 = EDGE_CURVE('',#75,#33,#92,.T.);
#92 = LINE('',#93,#94);
#93 = CARTESIAN_POINT('',(149.15625,-50.875,0.));
#94 = VECTOR('',#95,1.);
#95 = DIRECTION('',(1.,0.,0.));
#96 = PLANE('',#97);
#97 = AXIS2_PLACEMENT_3D('',#98,#99,#100);
#98 = CARTESIAN_POINT('',(149.15625,-50.875,0.));
#99 = DIRECTION('',(0.,1.,0.));
#100 = DIRECTION('',(1.,0.,0.));
#101 = ADVANCED_FACE('',(#102),#127,.T.);
#102 = FACE_BOUND('',#103,.T.);
#103 = EDGE_LOOP('',(#104,#105,#113,#121));
#104 = ORIENTED_EDGE('',*,*,#51,.T.);
#105 = ORIENTED_EDGE('',*,*,#106,.T.);
#106 = EDGE_CURVE('',#43,#107,#109,.T.);
#107 = VERTEX_POINT('',#108);
#108 = CARTESIAN_POINT('',(166.5,-54.34375,1.51));
#109 = LINE('',#110,#111);
#110 = CARTESIAN_POINT('',(166.5,-52.03125,1.51));
#111 = VECTOR('',#112,1.);
#112 = DIRECTION('',(0.,-1.,0.));
#113 = ORIENTED_EDGE('',*,*,#114,.F.);
#114 = EDGE_CURVE('',#115,#107,#117,.T.);
#115 = VERTEX_POINT('',#116);
#116 = CARTESIAN_POINT('',(166.5,-54.34375,0.));
#117 = LINE('',#118,#119);
#118 = CARTESIAN_POINT('',(166.5,-54.34375,0.));
#119 = VECTOR('',#120,1.);
#120 = DIRECTION('',(0.,0.,1.));
#121 = ORIENTED_EDGE('',*,*,#122,.F.);
#122 = EDGE_CURVE('',#52,#115,#123,.T.);
#123 = LINE('',#124,#125);
#124 = CARTESIAN_POINT('',(166.5,-52.03125,0.));
#125 = VECTOR('',#126,1.);
#126 = DIRECTION('',(0.,-1.,0.));
#127 = PLANE('',#128);
#128 = AXIS2_PLACEMENT_3D('',#129,#130,#131);
#129 = CARTESIAN_POINT('',(166.5,-52.03125,0.));
#130 = DIRECTION('',(1.,0.,-0.));
#131 = DIRECTION('',(0.,-1.,0.));
#132 = ADVANCED_FACE('',(#133,#485,#496,#507,#518,#529,#540,#551,#562,
    #573,#584),#595,.F.);
#133 = FACE_BOUND('',#134,.F.);
#134 = EDGE_LOOP('',(#135,#136,#137,#146,#154,#163,#171,#180,#188,#197,
    #205,#214,#222,#231,#239,#248,#256,#265,#273,#282,#290,#299,#307,
    #316,#324,#333,#341,#350,#358,#367,#375,#384,#392,#401,#409,#418,
    #426,#435,#443,#452,#460,#469,#477,#484));
#135 = ORIENTED_EDGE('',*,*,#59,.F.);
#136 = ORIENTED_EDGE('',*,*,#91,.F.);
#137 = ORIENTED_EDGE('',*,*,#138,.F.);
#138 = EDGE_CURVE('',#139,#75,#141,.T.);
#139 = VERTEX_POINT('',#140);
#140 = CARTESIAN_POINT('',(148.,-52.03125,0.));
#141 = CIRCLE('',#142,1.156298539074);
#142 = AXIS2_PLACEMENT_3D('',#143,#144,#145);
#143 = CARTESIAN_POINT('',(149.15629853805,-52.03129853805,0.));
#144 = DIRECTION('',(0.,0.,-1.));
#145 = DIRECTION('',(-0.999999999119,4.197709661878E-05,0.));
#146 = ORIENTED_EDGE('',*,*,#147,.F.);
#147 = EDGE_CURVE('',#148,#139,#150,.T.);
#148 = VERTEX_POINT('',#149);
#149 = CARTESIAN_POINT('',(148.,-54.34375,0.));
#150 = LINE('',#151,#152);
#151 = CARTESIAN_POINT('',(148.,-54.34375,0.));
#152 = VECTOR('',#153,1.);
#153 = DIRECTION('',(0.,1.,0.));
#154 = ORIENTED_EDGE('',*,*,#155,.F.);
#155 = EDGE_CURVE('',#156,#148,#158,.T.);
#156 = VERTEX_POINT('',#157);
#157 = CARTESIAN_POINT('',(146.84375,-55.5,0.));
#158 = CIRCLE('',#159,1.156298539074);
#159 = AXIS2_PLACEMENT_3D('',#160,#161,#162);
#160 = CARTESIAN_POINT('',(146.84370146194,-54.34370146194,0.));
#161 = DIRECTION('',(0.,0.,1.));
#162 = DIRECTION('',(4.19770965942E-05,-0.999999999119,0.));
#163 = ORIENTED_EDGE('',*,*,#164,.F.);
#164 = EDGE_CURVE('',#165,#156,#167,.T.);
#165 = VERTEX_POINT('',#166);
#166 = CARTESIAN_POINT('',(130.65625,-55.5,0.));
#167 = LINE('',#168,#169);
#168 = CARTESIAN_POINT('',(130.65625,-55.5,0.));
#169 = VECTOR('',#170,1.);
#170 = DIRECTION('',(1.,0.,0.));
#171 = ORIENTED_EDGE('',*,*,#172,.F.);
#172 = EDGE_CURVE('',#173,#165,#175,.T.);
#173 = VERTEX_POINT('',#174);
#174 = CARTESIAN_POINT('',(129.5,-56.65625,0.));
#175 = CIRCLE('',#176,1.156298539074);
#176 = AXIS2_PLACEMENT_3D('',#177,#178,#179);
#177 = CARTESIAN_POINT('',(130.65629853805,-56.65629853805,0.));
#178 = DIRECTION('',(0.,0.,-1.));
#179 = DIRECTION('',(-0.999999999119,4.197709661878E-05,0.));
#180 = ORIENTED_EDGE('',*,*,#181,.F.);
#181 = EDGE_CURVE('',#182,#173,#184,.T.);
#182 = VERTEX_POINT('',#183);
#183 = CARTESIAN_POINT('',(129.5,-58.96875,0.));
#184 = LINE('',#185,#186);
#185 = CARTESIAN_POINT('',(129.5,-58.96875,0.));
#186 = VECTOR('',#187,1.);
#187 = DIRECTION('',(0.,1.,0.));
#188 = ORIENTED_EDGE('',*,*,#189,.F.);
#189 = EDGE_CURVE('',#190,#182,#192,.T.);
#190 = VERTEX_POINT('',#191);
#191 = CARTESIAN_POINT('',(128.34375,-60.125,0.));
#192 = CIRCLE('',#193,1.156298539074);
#193 = AXIS2_PLACEMENT_3D('',#194,#195,#196);
#194 = CARTESIAN_POINT('',(128.34370146194,-58.96870146194,0.));
#195 = DIRECTION('',(0.,0.,1.));
#196 = DIRECTION('',(4.19770965942E-05,-0.999999999119,0.));
#197 = ORIENTED_EDGE('',*,*,#198,.F.);
#198 = EDGE_CURVE('',#199,#190,#201,.T.);
#199 = VERTEX_POINT('',#200);
#200 = CARTESIAN_POINT('',(112.15625,-60.125,0.));
#201 = LINE('',#202,#203);
#202 = CARTESIAN_POINT('',(112.15625,-60.125,0.));
#203 = VECTOR('',#204,1.);
#204 = DIRECTION('',(1.,0.,0.));
#205 = ORIENTED_EDGE('',*,*,#206,.F.);
#206 = EDGE_CURVE('',#207,#199,#209,.T.);
#207 = VERTEX_POINT('',#208);
#208 = CARTESIAN_POINT('',(111.,-61.28125,0.));
#209 = CIRCLE('',#210,1.156298539074);
#210 = AXIS2_PLACEMENT_3D('',#211,#212,#213);
#211 = CARTESIAN_POINT('',(112.15629853805,-61.28129853805,0.));
#212 = DIRECTION('',(0.,0.,-1.));
#213 = DIRECTION('',(-0.999999999119,4.197709661878E-05,0.));
#214 = ORIENTED_EDGE('',*,*,#215,.F.);
#215 = EDGE_CURVE('',#216,#207,#218,.T.);
#216 = VERTEX_POINT('',#217);
#217 = CARTESIAN_POINT('',(111.,-114.46875,0.));
#218 = LINE('',#219,#220);
#219 = CARTESIAN_POINT('',(111.,-114.46875,0.));
#220 = VECTOR('',#221,1.);
#221 = DIRECTION('',(0.,1.,0.));
#222 = ORIENTED_EDGE('',*,*,#223,.F.);
#223 = EDGE_CURVE('',#224,#216,#226,.T.);
#224 = VERTEX_POINT('',#225);
#225 = CARTESIAN_POINT('',(112.15625,-115.625,0.));
#226 = CIRCLE('',#227,1.156298539074);
#227 = AXIS2_PLACEMENT_3D('',#228,#229,#230);
#228 = CARTESIAN_POINT('',(112.15629853805,-114.4687014619,0.));
#229 = DIRECTION('',(0.,0.,-1.));
#230 = DIRECTION('',(-4.197709661878E-05,-0.999999999119,-0.));
#231 = ORIENTED_EDGE('',*,*,#232,.F.);
#232 = EDGE_CURVE('',#233,#224,#235,.T.);
#233 = VERTEX_POINT('',#234);
#234 = CARTESIAN_POINT('',(128.34375,-115.625,0.));
#235 = LINE('',#236,#237);
#236 = CARTESIAN_POINT('',(128.34375,-115.625,0.));
#237 = VECTOR('',#238,1.);
#238 = DIRECTION('',(-1.,0.,0.));
#239 = ORIENTED_EDGE('',*,*,#240,.F.);
#240 = EDGE_CURVE('',#241,#233,#243,.T.);
#241 = VERTEX_POINT('',#242);
#242 = CARTESIAN_POINT('',(129.5,-114.46875,0.));
#243 = CIRCLE('',#244,1.156298539074);
#244 = AXIS2_PLACEMENT_3D('',#245,#246,#247);
#245 = CARTESIAN_POINT('',(128.34370146194,-114.4687014619,0.));
#246 = DIRECTION('',(0.,0.,-1.));
#247 = DIRECTION('',(0.999999999119,-4.197709661878E-05,0.));
#248 = ORIENTED_EDGE('',*,*,#249,.F.);
#249 = EDGE_CURVE('',#250,#241,#252,.T.);
#250 = VERTEX_POINT('',#251);
#251 = CARTESIAN_POINT('',(129.5,-112.15625,0.));
#252 = LINE('',#253,#254);
#253 = CARTESIAN_POINT('',(129.5,-112.15625,0.));
#254 = VECTOR('',#255,1.);
#255 = DIRECTION('',(0.,-1.,0.));
#256 = ORIENTED_EDGE('',*,*,#257,.F.);
#257 = EDGE_CURVE('',#258,#250,#260,.T.);
#258 = VERTEX_POINT('',#259);
#259 = CARTESIAN_POINT('',(130.65625,-111.,0.));
#260 = CIRCLE('',#261,1.156298539074);
#261 = AXIS2_PLACEMENT_3D('',#262,#263,#264);
#262 = CARTESIAN_POINT('',(130.65629853805,-112.156298538,0.));
#263 = DIRECTION('',(0.,0.,1.));
#264 = DIRECTION('',(-4.19770965942E-05,0.999999999119,0.));
#265 = ORIENTED_EDGE('',*,*,#266,.F.);
#266 = EDGE_CURVE('',#267,#258,#269,.T.);
#267 = VERTEX_POINT('',#268);
#268 = CARTESIAN_POINT('',(146.84375,-111.,0.));
#269 = LINE('',#270,#271);
#270 = CARTESIAN_POINT('',(146.84375,-111.,0.));
#271 = VECTOR('',#272,1.);
#272 = DIRECTION('',(-1.,0.,0.));
#273 = ORIENTED_EDGE('',*,*,#274,.F.);
#274 = EDGE_CURVE('',#275,#267,#277,.T.);
#275 = VERTEX_POINT('',#276);
#276 = CARTESIAN_POINT('',(148.,-109.84375,0.));
#277 = CIRCLE('',#278,1.156298539074);
#278 = AXIS2_PLACEMENT_3D('',#279,#280,#281);
#279 = CARTESIAN_POINT('',(146.84370146194,-109.8437014619,0.));
#280 = DIRECTION('',(0.,0.,-1.));
#281 = DIRECTION('',(0.999999999119,-4.197709661878E-05,0.));
#282 = ORIENTED_EDGE('',*,*,#283,.F.);
#283 = EDGE_CURVE('',#284,#275,#286,.T.);
#284 = VERTEX_POINT('',#285);
#285 = CARTESIAN_POINT('',(148.,-107.53125,0.));
#286 = LINE('',#287,#288);
#287 = CARTESIAN_POINT('',(148.,-107.53125,0.));
#288 = VECTOR('',#289,1.);
#289 = DIRECTION('',(0.,-1.,0.));
#290 = ORIENTED_EDGE('',*,*,#291,.F.);
#291 = EDGE_CURVE('',#292,#284,#294,.T.);
#292 = VERTEX_POINT('',#293);
#293 = CARTESIAN_POINT('',(149.15625,-106.375,0.));
#294 = CIRCLE('',#295,1.156298539074);
#295 = AXIS2_PLACEMENT_3D('',#296,#297,#298);
#296 = CARTESIAN_POINT('',(149.15629853805,-107.531298538,0.));
#297 = DIRECTION('',(0.,0.,1.));
#298 = DIRECTION('',(-4.19770965942E-05,0.999999999119,0.));
#299 = ORIENTED_EDGE('',*,*,#300,.F.);
#300 = EDGE_CURVE('',#301,#292,#303,.T.);
#301 = VERTEX_POINT('',#302);
#302 = CARTESIAN_POINT('',(165.34375,-106.375,0.));
#303 = LINE('',#304,#305);
#304 = CARTESIAN_POINT('',(165.34375,-106.375,0.));
#305 = VECTOR('',#306,1.);
#306 = DIRECTION('',(-1.,0.,0.));
#307 = ORIENTED_EDGE('',*,*,#308,.F.);
#308 = EDGE_CURVE('',#309,#301,#311,.T.);
#309 = VERTEX_POINT('',#310);
#310 = CARTESIAN_POINT('',(166.5,-107.53125,0.));
#311 = CIRCLE('',#312,1.156298539074);
#312 = AXIS2_PLACEMENT_3D('',#313,#314,#315);
#313 = CARTESIAN_POINT('',(165.34370146194,-107.531298538,0.));
#314 = DIRECTION('',(0.,0.,1.));
#315 = DIRECTION('',(0.999999999119,4.197709661878E-05,-0.));
#316 = ORIENTED_EDGE('',*,*,#317,.F.);
#317 = EDGE_CURVE('',#318,#309,#320,.T.);
#318 = VERTEX_POINT('',#319);
#319 = CARTESIAN_POINT('',(166.5,-128.34375,0.));
#320 = LINE('',#321,#322);
#321 = CARTESIAN_POINT('',(166.5,-128.34375,0.));
#322 = VECTOR('',#323,1.);
#323 = DIRECTION('',(0.,1.,0.));
#324 = ORIENTED_EDGE('',*,*,#325,.F.);
#325 = EDGE_CURVE('',#326,#318,#328,.T.);
#326 = VERTEX_POINT('',#327);
#327 = CARTESIAN_POINT('',(167.65625,-129.5,0.));
#328 = CIRCLE('',#329,1.156298539074);
#329 = AXIS2_PLACEMENT_3D('',#330,#331,#332);
#330 = CARTESIAN_POINT('',(167.65629853805,-128.3437014619,0.));
#331 = DIRECTION('',(0.,0.,-1.));
#332 = DIRECTION('',(-4.19770965942E-05,-0.999999999119,-0.));
#333 = ORIENTED_EDGE('',*,*,#334,.F.);
#334 = EDGE_CURVE('',#335,#326,#337,.T.);
#335 = VERTEX_POINT('',#336);
#336 = CARTESIAN_POINT('',(183.84375,-129.5,0.));
#337 = LINE('',#338,#339);
#338 = CARTESIAN_POINT('',(183.84375,-129.5,0.));
#339 = VECTOR('',#340,1.);
#340 = DIRECTION('',(-1.,0.,0.));
#341 = ORIENTED_EDGE('',*,*,#342,.F.);
#342 = EDGE_CURVE('',#343,#335,#345,.T.);
#343 = VERTEX_POINT('',#344);
#344 = CARTESIAN_POINT('',(185.,-130.65625,0.));
#345 = CIRCLE('',#346,1.156298539074);
#346 = AXIS2_PLACEMENT_3D('',#347,#348,#349);
#347 = CARTESIAN_POINT('',(183.84370146194,-130.656298538,0.));
#348 = DIRECTION('',(0.,0.,1.));
#349 = DIRECTION('',(0.999999999119,4.19770965942E-05,-0.));
#350 = ORIENTED_EDGE('',*,*,#351,.F.);
#351 = EDGE_CURVE('',#352,#343,#354,.T.);
#352 = VERTEX_POINT('',#353);
#353 = CARTESIAN_POINT('',(185.,-132.96875,0.));
#354 = LINE('',#355,#356);
#355 = CARTESIAN_POINT('',(185.,-132.96875,0.));
#356 = VECTOR('',#357,1.);
#357 = DIRECTION('',(0.,1.,0.));
#358 = ORIENTED_EDGE('',*,*,#359,.F.);
#359 = EDGE_CURVE('',#360,#352,#362,.T.);
#360 = VERTEX_POINT('',#361);
#361 = CARTESIAN_POINT('',(186.15625,-134.125,0.));
#362 = CIRCLE('',#363,1.156298539074);
#363 = AXIS2_PLACEMENT_3D('',#364,#365,#366);
#364 = CARTESIAN_POINT('',(186.15629853805,-132.9687014619,0.));
#365 = DIRECTION('',(0.,0.,-1.));
#366 = DIRECTION('',(-4.19770965942E-05,-0.999999999119,-0.));
#367 = ORIENTED_EDGE('',*,*,#368,.F.);
#368 = EDGE_CURVE('',#369,#360,#371,.T.);
#369 = VERTEX_POINT('',#370);
#370 = CARTESIAN_POINT('',(202.34375,-134.125,0.));
#371 = LINE('',#372,#373);
#372 = CARTESIAN_POINT('',(202.34375,-134.125,0.));
#373 = VECTOR('',#374,1.);
#374 = DIRECTION('',(-1.,0.,0.));
#375 = ORIENTED_EDGE('',*,*,#376,.F.);
#376 = EDGE_CURVE('',#377,#369,#379,.T.);
#377 = VERTEX_POINT('',#378);
#378 = CARTESIAN_POINT('',(203.5,-135.28125,0.));
#379 = CIRCLE('',#380,1.156298539074);
#380 = AXIS2_PLACEMENT_3D('',#381,#382,#383);
#381 = CARTESIAN_POINT('',(202.34370146194,-135.281298538,0.));
#382 = DIRECTION('',(0.,0.,1.));
#383 = DIRECTION('',(0.999999999119,4.19770965942E-05,-0.));
#384 = ORIENTED_EDGE('',*,*,#385,.F.);
#385 = EDGE_CURVE('',#386,#377,#388,.T.);
#386 = VERTEX_POINT('',#387);
#387 = CARTESIAN_POINT('',(203.5,-137.59375,0.));
#388 = LINE('',#389,#390);
#389 = CARTESIAN_POINT('',(203.5,-137.59375,0.));
#390 = VECTOR('',#391,1.);
#391 = DIRECTION('',(0.,1.,0.));
#392 = ORIENTED_EDGE('',*,*,#393,.F.);
#393 = EDGE_CURVE('',#394,#386,#396,.T.);
#394 = VERTEX_POINT('',#395);
#395 = CARTESIAN_POINT('',(204.65625,-138.75,0.));
#396 = CIRCLE('',#397,1.156298539074);
#397 = AXIS2_PLACEMENT_3D('',#398,#399,#400);
#398 = CARTESIAN_POINT('',(204.65629853805,-137.5937014619,0.));
#399 = DIRECTION('',(0.,0.,-1.));
#400 = DIRECTION('',(-4.19770965942E-05,-0.999999999119,-0.));
#401 = ORIENTED_EDGE('',*,*,#402,.F.);
#402 = EDGE_CURVE('',#403,#394,#405,.T.);
#403 = VERTEX_POINT('',#404);
#404 = CARTESIAN_POINT('',(220.84375,-138.75,0.));
#405 = LINE('',#406,#407);
#406 = CARTESIAN_POINT('',(220.84375,-138.75,0.));
#407 = VECTOR('',#408,1.);
#408 = DIRECTION('',(-1.,0.,0.));
#409 = ORIENTED_EDGE('',*,*,#410,.F.);
#410 = EDGE_CURVE('',#411,#403,#413,.T.);
#411 = VERTEX_POINT('',#412);
#412 = CARTESIAN_POINT('',(222.,-137.59375,0.));
#413 = CIRCLE('',#414,1.156298539074);
#414 = AXIS2_PLACEMENT_3D('',#415,#416,#417);
#415 = CARTESIAN_POINT('',(220.84370146194,-137.5937014619,0.));
#416 = DIRECTION('',(0.,0.,-1.));
#417 = DIRECTION('',(0.999999999119,-4.19770965942E-05,0.));
#418 = ORIENTED_EDGE('',*,*,#419,.F.);
#419 = EDGE_CURVE('',#420,#411,#422,.T.);
#420 = VERTEX_POINT('',#421);
#421 = CARTESIAN_POINT('',(222.,-61.28125,0.));
#422 = LINE('',#423,#424);
#423 = CARTESIAN_POINT('',(222.,-61.28125,0.));
#424 = VECTOR('',#425,1.);
#425 = DIRECTION('',(0.,-1.,0.));
#426 = ORIENTED_EDGE('',*,*,#427,.F.);
#427 = EDGE_CURVE('',#428,#420,#430,.T.);
#428 = VERTEX_POINT('',#429);
#429 = CARTESIAN_POINT('',(220.84375,-60.125,0.));
#430 = CIRCLE('',#431,1.156298539074);
#431 = AXIS2_PLACEMENT_3D('',#432,#433,#434);
#432 = CARTESIAN_POINT('',(220.84370146194,-61.28129853805,0.));
#433 = DIRECTION('',(0.,0.,-1.));
#434 = DIRECTION('',(4.19770965942E-05,0.999999999119,0.));
#435 = ORIENTED_EDGE('',*,*,#436,.F.);
#436 = EDGE_CURVE('',#437,#428,#439,.T.);
#437 = VERTEX_POINT('',#438);
#438 = CARTESIAN_POINT('',(186.15625,-60.125,0.));
#439 = LINE('',#440,#441);
#440 = CARTESIAN_POINT('',(186.15625,-60.125,0.));
#441 = VECTOR('',#442,1.);
#442 = DIRECTION('',(1.,0.,0.));
#443 = ORIENTED_EDGE('',*,*,#444,.F.);
#444 = EDGE_CURVE('',#445,#437,#447,.T.);
#445 = VERTEX_POINT('',#446);
#446 = CARTESIAN_POINT('',(185.,-58.96875,0.));
#447 = CIRCLE('',#448,1.156298539074);
#448 = AXIS2_PLACEMENT_3D('',#449,#450,#451);
#449 = CARTESIAN_POINT('',(186.15629853805,-58.96870146194,0.));
#450 = DIRECTION('',(0.,0.,1.));
#451 = DIRECTION('',(-0.999999999119,-4.197709661878E-05,0.));
#452 = ORIENTED_EDGE('',*,*,#453,.F.);
#453 = EDGE_CURVE('',#454,#445,#456,.T.);
#454 = VERTEX_POINT('',#455);
#455 = CARTESIAN_POINT('',(185.,-56.65625,0.));
#456 = LINE('',#457,#458);
#457 = CARTESIAN_POINT('',(185.,-56.65625,0.));
#458 = VECTOR('',#459,1.);
#459 = DIRECTION('',(0.,-1.,0.));
#460 = ORIENTED_EDGE('',*,*,#461,.F.);
#461 = EDGE_CURVE('',#462,#454,#464,.T.);
#462 = VERTEX_POINT('',#463);
#463 = CARTESIAN_POINT('',(183.84375,-55.5,0.));
#464 = CIRCLE('',#465,1.156298539074);
#465 = AXIS2_PLACEMENT_3D('',#466,#467,#468);
#466 = CARTESIAN_POINT('',(183.84370146194,-56.65629853805,0.));
#467 = DIRECTION('',(0.,0.,-1.));
#468 = DIRECTION('',(4.19770965942E-05,0.999999999119,0.));
#469 = ORIENTED_EDGE('',*,*,#470,.F.);
#470 = EDGE_CURVE('',#471,#462,#473,.T.);
#471 = VERTEX_POINT('',#472);
#472 = CARTESIAN_POINT('',(167.65625,-55.5,0.));
#473 = LINE('',#474,#475);
#474 = CARTESIAN_POINT('',(167.65625,-55.5,0.));
#475 = VECTOR('',#476,1.);
#476 = DIRECTION('',(1.,0.,0.));
#477 = ORIENTED_EDGE('',*,*,#478,.F.);
#478 = EDGE_CURVE('',#115,#471,#479,.T.);
#479 = CIRCLE('',#480,1.156298539074);
#480 = AXIS2_PLACEMENT_3D('',#481,#482,#483);
#481 = CARTESIAN_POINT('',(167.65629853805,-54.34370146194,0.));
#482 = DIRECTION('',(0.,0.,1.));
#483 = DIRECTION('',(-0.999999999119,-4.197709661878E-05,0.));
#484 = ORIENTED_EDGE('',*,*,#122,.F.);
#485 = FACE_BOUND('',#486,.F.);
#486 = EDGE_LOOP('',(#487));
#487 = ORIENTED_EDGE('',*,*,#488,.T.);
#488 = EDGE_CURVE('',#489,#489,#491,.T.);
#489 = VERTEX_POINT('',#490);
#490 = CARTESIAN_POINT('',(129.5,-93.6,0.));
#491 = CIRCLE('',#492,1.1);
#492 = AXIS2_PLACEMENT_3D('',#493,#494,#495);
#493 = CARTESIAN_POINT('',(129.5,-92.5,0.));
#494 = DIRECTION('',(-0.,0.,-1.));
#495 = DIRECTION('',(-0.,-1.,0.));
#496 = FACE_BOUND('',#497,.F.);
#497 = EDGE_LOOP('',(#498));
#498 = ORIENTED_EDGE('',*,*,#499,.T.);
#499 = EDGE_CURVE('',#500,#500,#502,.T.);
#500 = VERTEX_POINT('',#501);
#501 = CARTESIAN_POINT('',(185.,-112.1,0.));
#502 = CIRCLE('',#503,1.1);
#503 = AXIS2_PLACEMENT_3D('',#504,#505,#506);
#504 = CARTESIAN_POINT('',(185.,-111.,0.));
#505 = DIRECTION('',(-0.,0.,-1.));
#506 = DIRECTION('',(-0.,-1.,0.));
#507 = FACE_BOUND('',#508,.F.);
#508 = EDGE_LOOP('',(#509));
#509 = ORIENTED_EDGE('',*,*,#510,.T.);
#510 = EDGE_CURVE('',#511,#511,#513,.T.);
#511 = VERTEX_POINT('',#512);
#512 = CARTESIAN_POINT('',(203.5,-116.725,0.));
#513 = CIRCLE('',#514,1.1);
#514 = AXIS2_PLACEMENT_3D('',#515,#516,#517);
#515 = CARTESIAN_POINT('',(203.5,-115.625,0.));
#516 = DIRECTION('',(-0.,0.,-1.));
#517 = DIRECTION('',(-0.,-1.,0.));
#518 = FACE_BOUND('',#519,.F.);
#519 = EDGE_LOOP('',(#520));
#520 = ORIENTED_EDGE('',*,*,#521,.T.);
#521 = EDGE_CURVE('',#522,#522,#524,.T.);
#522 = VERTEX_POINT('',#523);
#523 = CARTESIAN_POINT('',(203.5,-98.138506,0.));
#524 = CIRCLE('',#525,1.1);
#525 = AXIS2_PLACEMENT_3D('',#526,#527,#528);
#526 = CARTESIAN_POINT('',(203.5,-97.038506,0.));
#527 = DIRECTION('',(-0.,0.,-1.));
#528 = DIRECTION('',(-0.,-1.,0.));
#529 = FACE_BOUND('',#530,.F.);
#530 = EDGE_LOOP('',(#531));
#531 = ORIENTED_EDGE('',*,*,#532,.T.);
#532 = EDGE_CURVE('',#533,#533,#535,.T.);
#533 = VERTEX_POINT('',#534);
#534 = CARTESIAN_POINT('',(148.,-88.975,0.));
#535 = CIRCLE('',#536,1.1);
#536 = AXIS2_PLACEMENT_3D('',#537,#538,#539);
#537 = CARTESIAN_POINT('',(148.,-87.875,0.));
#538 = DIRECTION('',(-0.,0.,-1.));
#539 = DIRECTION('',(-0.,-1.,0.));
#540 = FACE_BOUND('',#541,.F.);
#541 = EDGE_LOOP('',(#542));
#542 = ORIENTED_EDGE('',*,*,#543,.T.);
#543 = EDGE_CURVE('',#544,#544,#546,.T.);
#544 = VERTEX_POINT('',#545);
#545 = CARTESIAN_POINT('',(129.5,-75.1,0.));
#546 = CIRCLE('',#547,1.1);
#547 = AXIS2_PLACEMENT_3D('',#548,#549,#550);
#548 = CARTESIAN_POINT('',(129.5,-74.,0.));
#549 = DIRECTION('',(-0.,0.,-1.));
#550 = DIRECTION('',(-0.,-1.,0.));
#551 = FACE_BOUND('',#552,.F.);
#552 = EDGE_LOOP('',(#553));
#553 = ORIENTED_EDGE('',*,*,#554,.T.);
#554 = EDGE_CURVE('',#555,#555,#557,.T.);
#555 = VERTEX_POINT('',#556);
#556 = CARTESIAN_POINT('',(148.,-70.475,0.));
#557 = CIRCLE('',#558,1.1);
#558 = AXIS2_PLACEMENT_3D('',#559,#560,#561);
#559 = CARTESIAN_POINT('',(148.,-69.375,0.));
#560 = DIRECTION('',(-0.,0.,-1.));
#561 = DIRECTION('',(-0.,-1.,0.));
#562 = FACE_BOUND('',#563,.F.);
#563 = EDGE_LOOP('',(#564));
#564 = ORIENTED_EDGE('',*,*,#565,.T.);
#565 = EDGE_CURVE('',#566,#566,#568,.T.);
#566 = VERTEX_POINT('',#567);
#567 = CARTESIAN_POINT('',(166.5,-88.975,0.));
#568 = CIRCLE('',#569,1.1);
#569 = AXIS2_PLACEMENT_3D('',#570,#571,#572);
#570 = CARTESIAN_POINT('',(166.5,-87.875,0.));
#571 = DIRECTION('',(-0.,0.,-1.));
#572 = DIRECTION('',(-0.,-1.,0.));
#573 = FACE_BOUND('',#574,.F.);
#574 = EDGE_LOOP('',(#575));
#575 = ORIENTED_EDGE('',*,*,#576,.T.);
#576 = EDGE_CURVE('',#577,#577,#579,.T.);
#577 = VERTEX_POINT('',#578);
#578 = CARTESIAN_POINT('',(166.5,-70.475,0.));
#579 = CIRCLE('',#580,1.1);
#580 = AXIS2_PLACEMENT_3D('',#581,#582,#583);
#581 = CARTESIAN_POINT('',(166.5,-69.375,0.));
#582 = DIRECTION('',(-0.,0.,-1.));
#583 = DIRECTION('',(-0.,-1.,0.));
#584 = FACE_BOUND('',#585,.F.);
#585 = EDGE_LOOP('',(#586));
#586 = ORIENTED_EDGE('',*,*,#587,.T.);
#587 = EDGE_CURVE('',#588,#588,#590,.T.);
#588 = VERTEX_POINT('',#589);
#589 = CARTESIAN_POINT('',(185.,-75.1,0.));
#590 = CIRCLE('',#591,1.1);
#591 = AXIS2_PLACEMENT_3D('',#592,#593,#594);
#592 = CARTESIAN_POINT('',(185.,-74.,0.));
#593 = DIRECTION('',(-0.,0.,-1.));
#594 = DIRECTION('',(-0.,-1.,0.));
#595 = PLANE('',#596);
#596 = AXIS2_PLACEMENT_3D('',#597,#598,#599);
#597 = CARTESIAN_POINT('',(0.,0.,0.));
#598 = DIRECTION('',(0.,0.,1.));
#599 = DIRECTION('',(1.,0.,-0.));
#600 = ADVANCED_FACE('',(#601,#953,#964,#975,#986,#997,#1008,#1019,#1030
    ,#1041,#1052),#1063,.T.);
#601 = FACE_BOUND('',#602,.T.);
#602 = EDGE_LOOP('',(#603,#604,#605,#614,#622,#631,#639,#648,#656,#665,
    #673,#682,#690,#699,#707,#716,#724,#733,#741,#750,#758,#767,#775,
    #784,#792,#801,#809,#818,#826,#835,#843,#852,#860,#869,#877,#886,
    #894,#903,#911,#920,#928,#937,#945,#952));
#603 = ORIENTED_EDGE('',*,*,#42,.F.);
#604 = ORIENTED_EDGE('',*,*,#84,.F.);
#605 = ORIENTED_EDGE('',*,*,#606,.F.);
#606 = EDGE_CURVE('',#607,#77,#609,.T.);
#607 = VERTEX_POINT('',#608);
#608 = CARTESIAN_POINT('',(148.,-52.03125,1.51));
#609 = CIRCLE('',#610,1.156298539074);
#610 = AXIS2_PLACEMENT_3D('',#611,#612,#613);
#611 = CARTESIAN_POINT('',(149.15629853805,-52.03129853805,1.51));
#612 = DIRECTION('',(0.,0.,-1.));
#613 = DIRECTION('',(-0.999999999119,4.197709661878E-05,0.));
#614 = ORIENTED_EDGE('',*,*,#615,.F.);
#615 = EDGE_CURVE('',#616,#607,#618,.T.);
#616 = VERTEX_POINT('',#617);
#617 = CARTESIAN_POINT('',(148.,-54.34375,1.51));
#618 = LINE('',#619,#620);
#619 = CARTESIAN_POINT('',(148.,-54.34375,1.51));
#620 = VECTOR('',#621,1.);
#621 = DIRECTION('',(0.,1.,0.));
#622 = ORIENTED_EDGE('',*,*,#623,.F.);
#623 = EDGE_CURVE('',#624,#616,#626,.T.);
#624 = VERTEX_POINT('',#625);
#625 = CARTESIAN_POINT('',(146.84375,-55.5,1.51));
#626 = CIRCLE('',#627,1.156298539074);
#627 = AXIS2_PLACEMENT_3D('',#628,#629,#630);
#628 = CARTESIAN_POINT('',(146.84370146194,-54.34370146194,1.51));
#629 = DIRECTION('',(0.,0.,1.));
#630 = DIRECTION('',(4.19770965942E-05,-0.999999999119,0.));
#631 = ORIENTED_EDGE('',*,*,#632,.F.);
#632 = EDGE_CURVE('',#633,#624,#635,.T.);
#633 = VERTEX_POINT('',#634);
#634 = CARTESIAN_POINT('',(130.65625,-55.5,1.51));
#635 = LINE('',#636,#637);
#636 = CARTESIAN_POINT('',(130.65625,-55.5,1.51));
#637 = VECTOR('',#638,1.);
#638 = DIRECTION('',(1.,0.,0.));
#639 = ORIENTED_EDGE('',*,*,#640,.F.);
#640 = EDGE_CURVE('',#641,#633,#643,.T.);
#641 = VERTEX_POINT('',#642);
#642 = CARTESIAN_POINT('',(129.5,-56.65625,1.51));
#643 = CIRCLE('',#644,1.156298539074);
#644 = AXIS2_PLACEMENT_3D('',#645,#646,#647);
#645 = CARTESIAN_POINT('',(130.65629853805,-56.65629853805,1.51));
#646 = DIRECTION('',(0.,0.,-1.));
#647 = DIRECTION('',(-0.999999999119,4.197709661878E-05,0.));
#648 = ORIENTED_EDGE('',*,*,#649,.F.);
#649 = EDGE_CURVE('',#650,#641,#652,.T.);
#650 = VERTEX_POINT('',#651);
#651 = CARTESIAN_POINT('',(129.5,-58.96875,1.51));
#652 = LINE('',#653,#654);
#653 = CARTESIAN_POINT('',(129.5,-58.96875,1.51));
#654 = VECTOR('',#655,1.);
#655 = DIRECTION('',(0.,1.,0.));
#656 = ORIENTED_EDGE('',*,*,#657,.F.);
#657 = EDGE_CURVE('',#658,#650,#660,.T.);
#658 = VERTEX_POINT('',#659);
#659 = CARTESIAN_POINT('',(128.34375,-60.125,1.51));
#660 = CIRCLE('',#661,1.156298539074);
#661 = AXIS2_PLACEMENT_3D('',#662,#663,#664);
#662 = CARTESIAN_POINT('',(128.34370146194,-58.96870146194,1.51));
#663 = DIRECTION('',(0.,0.,1.));
#664 = DIRECTION('',(4.19770965942E-05,-0.999999999119,0.));
#665 = ORIENTED_EDGE('',*,*,#666,.F.);
#666 = EDGE_CURVE('',#667,#658,#669,.T.);
#667 = VERTEX_POINT('',#668);
#668 = CARTESIAN_POINT('',(112.15625,-60.125,1.51));
#669 = LINE('',#670,#671);
#670 = CARTESIAN_POINT('',(112.15625,-60.125,1.51));
#671 = VECTOR('',#672,1.);
#672 = DIRECTION('',(1.,0.,0.));
#673 = ORIENTED_EDGE('',*,*,#674,.F.);
#674 = EDGE_CURVE('',#675,#667,#677,.T.);
#675 = VERTEX_POINT('',#676);
#676 = CARTESIAN_POINT('',(111.,-61.28125,1.51));
#677 = CIRCLE('',#678,1.156298539074);
#678 = AXIS2_PLACEMENT_3D('',#679,#680,#681);
#679 = CARTESIAN_POINT('',(112.15629853805,-61.28129853805,1.51));
#680 = DIRECTION('',(0.,0.,-1.));
#681 = DIRECTION('',(-0.999999999119,4.197709661878E-05,0.));
#682 = ORIENTED_EDGE('',*,*,#683,.F.);
#683 = EDGE_CURVE('',#684,#675,#686,.T.);
#684 = VERTEX_POINT('',#685);
#685 = CARTESIAN_POINT('',(111.,-114.46875,1.51));
#686 = LINE('',#687,#688);
#687 = CARTESIAN_POINT('',(111.,-114.46875,1.51));
#688 = VECTOR('',#689,1.);
#689 = DIRECTION('',(0.,1.,0.));
#690 = ORIENTED_EDGE('',*,*,#691,.F.);
#691 = EDGE_CURVE('',#692,#684,#694,.T.);
#692 = VERTEX_POINT('',#693);
#693 = CARTESIAN_POINT('',(112.15625,-115.625,1.51));
#694 = CIRCLE('',#695,1.156298539074);
#695 = AXIS2_PLACEMENT_3D('',#696,#697,#698);
#696 = CARTESIAN_POINT('',(112.15629853805,-114.4687014619,1.51));
#697 = DIRECTION('',(0.,0.,-1.));
#698 = DIRECTION('',(-4.197709661878E-05,-0.999999999119,-0.));
#699 = ORIENTED_EDGE('',*,*,#700,.F.);
#700 = EDGE_CURVE('',#701,#692,#703,.T.);
#701 = VERTEX_POINT('',#702);
#702 = CARTESIAN_POINT('',(128.34375,-115.625,1.51));
#703 = LINE('',#704,#705);
#704 = CARTESIAN_POINT('',(128.34375,-115.625,1.51));
#705 = VECTOR('',#706,1.);
#706 = DIRECTION('',(-1.,0.,0.));
#707 = ORIENTED_EDGE('',*,*,#708,.F.);
#708 = EDGE_CURVE('',#709,#701,#711,.T.);
#709 = VERTEX_POINT('',#710);
#710 = CARTESIAN_POINT('',(129.5,-114.46875,1.51));
#711 = CIRCLE('',#712,1.156298539074);
#712 = AXIS2_PLACEMENT_3D('',#713,#714,#715);
#713 = CARTESIAN_POINT('',(128.34370146194,-114.4687014619,1.51));
#714 = DIRECTION('',(0.,0.,-1.));
#715 = DIRECTION('',(0.999999999119,-4.197709661878E-05,0.));
#716 = ORIENTED_EDGE('',*,*,#717,.F.);
#717 = EDGE_CURVE('',#718,#709,#720,.T.);
#718 = VERTEX_POINT('',#719);
#719 = CARTESIAN_POINT('',(129.5,-112.15625,1.51));
#720 = LINE('',#721,#722);
#721 = CARTESIAN_POINT('',(129.5,-112.15625,1.51));
#722 = VECTOR('',#723,1.);
#723 = DIRECTION('',(0.,-1.,0.));
#724 = ORIENTED_EDGE('',*,*,#725,.F.);
#725 = EDGE_CURVE('',#726,#718,#728,.T.);
#726 = VERTEX_POINT('',#727);
#727 = CARTESIAN_POINT('',(130.65625,-111.,1.51));
#728 = CIRCLE('',#729,1.156298539074);
#729 = AXIS2_PLACEMENT_3D('',#730,#731,#732);
#730 = CARTESIAN_POINT('',(130.65629853805,-112.156298538,1.51));
#731 = DIRECTION('',(0.,0.,1.));
#732 = DIRECTION('',(-4.19770965942E-05,0.999999999119,0.));
#733 = ORIENTED_EDGE('',*,*,#734,.F.);
#734 = EDGE_CURVE('',#735,#726,#737,.T.);
#735 = VERTEX_POINT('',#736);
#736 = CARTESIAN_POINT('',(146.84375,-111.,1.51));
#737 = LINE('',#738,#739);
#738 = CARTESIAN_POINT('',(146.84375,-111.,1.51));
#739 = VECTOR('',#740,1.);
#740 = DIRECTION('',(-1.,0.,0.));
#741 = ORIENTED_EDGE('',*,*,#742,.F.);
#742 = EDGE_CURVE('',#743,#735,#745,.T.);
#743 = VERTEX_POINT('',#744);
#744 = CARTESIAN_POINT('',(148.,-109.84375,1.51));
#745 = CIRCLE('',#746,1.156298539074);
#746 = AXIS2_PLACEMENT_3D('',#747,#748,#749);
#747 = CARTESIAN_POINT('',(146.84370146194,-109.8437014619,1.51));
#748 = DIRECTION('',(0.,0.,-1.));
#749 = DIRECTION('',(0.999999999119,-4.197709661878E-05,0.));
#750 = ORIENTED_EDGE('',*,*,#751,.F.);
#751 = EDGE_CURVE('',#752,#743,#754,.T.);
#752 = VERTEX_POINT('',#753);
#753 = CARTESIAN_POINT('',(148.,-107.53125,1.51));
#754 = LINE('',#755,#756);
#755 = CARTESIAN_POINT('',(148.,-107.53125,1.51));
#756 = VECTOR('',#757,1.);
#757 = DIRECTION('',(0.,-1.,0.));
#758 = ORIENTED_EDGE('',*,*,#759,.F.);
#759 = EDGE_CURVE('',#760,#752,#762,.T.);
#760 = VERTEX_POINT('',#761);
#761 = CARTESIAN_POINT('',(149.15625,-106.375,1.51));
#762 = CIRCLE('',#763,1.156298539074);
#763 = AXIS2_PLACEMENT_3D('',#764,#765,#766);
#764 = CARTESIAN_POINT('',(149.15629853805,-107.531298538,1.51));
#765 = DIRECTION('',(0.,0.,1.));
#766 = DIRECTION('',(-4.19770965942E-05,0.999999999119,0.));
#767 = ORIENTED_EDGE('',*,*,#768,.F.);
#768 = EDGE_CURVE('',#769,#760,#771,.T.);
#769 = VERTEX_POINT('',#770);
#770 = CARTESIAN_POINT('',(165.34375,-106.375,1.51));
#771 = LINE('',#772,#773);
#772 = CARTESIAN_POINT('',(165.34375,-106.375,1.51));
#773 = VECTOR('',#774,1.);
#774 = DIRECTION('',(-1.,0.,0.));
#775 = ORIENTED_EDGE('',*,*,#776,.F.);
#776 = EDGE_CURVE('',#777,#769,#779,.T.);
#777 = VERTEX_POINT('',#778);
#778 = CARTESIAN_POINT('',(166.5,-107.53125,1.51));
#779 = CIRCLE('',#780,1.156298539074);
#780 = AXIS2_PLACEMENT_3D('',#781,#782,#783);
#781 = CARTESIAN_POINT('',(165.34370146194,-107.531298538,1.51));
#782 = DIRECTION('',(0.,0.,1.));
#783 = DIRECTION('',(0.999999999119,4.197709661878E-05,-0.));
#784 = ORIENTED_EDGE('',*,*,#785,.F.);
#785 = EDGE_CURVE('',#786,#777,#788,.T.);
#786 = VERTEX_POINT('',#787);
#787 = CARTESIAN_POINT('',(166.5,-128.34375,1.51));
#788 = LINE('',#789,#790);
#789 = CARTESIAN_POINT('',(166.5,-128.34375,1.51));
#790 = VECTOR('',#791,1.);
#791 = DIRECTION('',(0.,1.,0.));
#792 = ORIENTED_EDGE('',*,*,#793,.F.);
#793 = EDGE_CURVE('',#794,#786,#796,.T.);
#794 = VERTEX_POINT('',#795);
#795 = CARTESIAN_POINT('',(167.65625,-129.5,1.51));
#796 = CIRCLE('',#797,1.156298539074);
#797 = AXIS2_PLACEMENT_3D('',#798,#799,#800);
#798 = CARTESIAN_POINT('',(167.65629853805,-128.3437014619,1.51));
#799 = DIRECTION('',(0.,0.,-1.));
#800 = DIRECTION('',(-4.19770965942E-05,-0.999999999119,-0.));
#801 = ORIENTED_EDGE('',*,*,#802,.F.);
#802 = EDGE_CURVE('',#803,#794,#805,.T.);
#803 = VERTEX_POINT('',#804);
#804 = CARTESIAN_POINT('',(183.84375,-129.5,1.51));
#805 = LINE('',#806,#807);
#806 = CARTESIAN_POINT('',(183.84375,-129.5,1.51));
#807 = VECTOR('',#808,1.);
#808 = DIRECTION('',(-1.,0.,0.));
#809 = ORIENTED_EDGE('',*,*,#810,.F.);
#810 = EDGE_CURVE('',#811,#803,#813,.T.);
#811 = VERTEX_POINT('',#812);
#812 = CARTESIAN_POINT('',(185.,-130.65625,1.51));
#813 = CIRCLE('',#814,1.156298539074);
#814 = AXIS2_PLACEMENT_3D('',#815,#816,#817);
#815 = CARTESIAN_POINT('',(183.84370146194,-130.656298538,1.51));
#816 = DIRECTION('',(0.,0.,1.));
#817 = DIRECTION('',(0.999999999119,4.19770965942E-05,-0.));
#818 = ORIENTED_EDGE('',*,*,#819,.F.);
#819 = EDGE_CURVE('',#820,#811,#822,.T.);
#820 = VERTEX_POINT('',#821);
#821 = CARTESIAN_POINT('',(185.,-132.96875,1.51));
#822 = LINE('',#823,#824);
#823 = CARTESIAN_POINT('',(185.,-132.96875,1.51));
#824 = VECTOR('',#825,1.);
#825 = DIRECTION('',(0.,1.,0.));
#826 = ORIENTED_EDGE('',*,*,#827,.F.);
#827 = EDGE_CURVE('',#828,#820,#830,.T.);
#828 = VERTEX_POINT('',#829);
#829 = CARTESIAN_POINT('',(186.15625,-134.125,1.51));
#830 = CIRCLE('',#831,1.156298539074);
#831 = AXIS2_PLACEMENT_3D('',#832,#833,#834);
#832 = CARTESIAN_POINT('',(186.15629853805,-132.9687014619,1.51));
#833 = DIRECTION('',(0.,0.,-1.));
#834 = DIRECTION('',(-4.19770965942E-05,-0.999999999119,-0.));
#835 = ORIENTED_EDGE('',*,*,#836,.F.);
#836 = EDGE_CURVE('',#837,#828,#839,.T.);
#837 = VERTEX_POINT('',#838);
#838 = CARTESIAN_POINT('',(202.34375,-134.125,1.51));
#839 = LINE('',#840,#841);
#840 = CARTESIAN_POINT('',(202.34375,-134.125,1.51));
#841 = VECTOR('',#842,1.);
#842 = DIRECTION('',(-1.,0.,0.));
#843 = ORIENTED_EDGE('',*,*,#844,.F.);
#844 = EDGE_CURVE('',#845,#837,#847,.T.);
#845 = VERTEX_POINT('',#846);
#846 = CARTESIAN_POINT('',(203.5,-135.28125,1.51));
#847 = CIRCLE('',#848,1.156298539074);
#848 = AXIS2_PLACEMENT_3D('',#849,#850,#851);
#849 = CARTESIAN_POINT('',(202.34370146194,-135.281298538,1.51));
#850 = DIRECTION('',(0.,0.,1.));
#851 = DIRECTION('',(0.999999999119,4.19770965942E-05,-0.));
#852 = ORIENTED_EDGE('',*,*,#853,.F.);
#853 = EDGE_CURVE('',#854,#845,#856,.T.);
#854 = VERTEX_POINT('',#855);
#855 = CARTESIAN_POINT('',(203.5,-137.59375,1.51));
#856 = LINE('',#857,#858);
#857 = CARTESIAN_POINT('',(203.5,-137.59375,1.51));
#858 = VECTOR('',#859,1.);
#859 = DIRECTION('',(0.,1.,0.));
#860 = ORIENTED_EDGE('',*,*,#861,.F.);
#861 = EDGE_CURVE('',#862,#854,#864,.T.);
#862 = VERTEX_POINT('',#863);
#863 = CARTESIAN_POINT('',(204.65625,-138.75,1.51));
#864 = CIRCLE('',#865,1.156298539074);
#865 = AXIS2_PLACEMENT_3D('',#866,#867,#868);
#866 = CARTESIAN_POINT('',(204.65629853805,-137.5937014619,1.51));
#867 = DIRECTION('',(0.,0.,-1.));
#868 = DIRECTION('',(-4.19770965942E-05,-0.999999999119,-0.));
#869 = ORIENTED_EDGE('',*,*,#870,.F.);
#870 = EDGE_CURVE('',#871,#862,#873,.T.);
#871 = VERTEX_POINT('',#872);
#872 = CARTESIAN_POINT('',(220.84375,-138.75,1.51));
#873 = LINE('',#874,#875);
#874 = CARTESIAN_POINT('',(220.84375,-138.75,1.51));
#875 = VECTOR('',#876,1.);
#876 = DIRECTION('',(-1.,0.,0.));
#877 = ORIENTED_EDGE('',*,*,#878,.F.);
#878 = EDGE_CURVE('',#879,#871,#881,.T.);
#879 = VERTEX_POINT('',#880);
#880 = CARTESIAN_POINT('',(222.,-137.59375,1.51));
#881 = CIRCLE('',#882,1.156298539074);
#882 = AXIS2_PLACEMENT_3D('',#883,#884,#885);
#883 = CARTESIAN_POINT('',(220.84370146194,-137.5937014619,1.51));
#884 = DIRECTION('',(0.,0.,-1.));
#885 = DIRECTION('',(0.999999999119,-4.19770965942E-05,0.));
#886 = ORIENTED_EDGE('',*,*,#887,.F.);
#887 = EDGE_CURVE('',#888,#879,#890,.T.);
#888 = VERTEX_POINT('',#889);
#889 = CARTESIAN_POINT('',(222.,-61.28125,1.51));
#890 = LINE('',#891,#892);
#891 = CARTESIAN_POINT('',(222.,-61.28125,1.51));
#892 = VECTOR('',#893,1.);
#893 = DIRECTION('',(0.,-1.,0.));
#894 = ORIENTED_EDGE('',*,*,#895,.F.);
#895 = EDGE_CURVE('',#896,#888,#898,.T.);
#896 = VERTEX_POINT('',#897);
#897 = CARTESIAN_POINT('',(220.84375,-60.125,1.51));
#898 = CIRCLE('',#899,1.156298539074);
#899 = AXIS2_PLACEMENT_3D('',#900,#901,#902);
#900 = CARTESIAN_POINT('',(220.84370146194,-61.28129853805,1.51));
#901 = DIRECTION('',(0.,0.,-1.));
#902 = DIRECTION('',(4.19770965942E-05,0.999999999119,0.));
#903 = ORIENTED_EDGE('',*,*,#904,.F.);
#904 = EDGE_CURVE('',#905,#896,#907,.T.);
#905 = VERTEX_POINT('',#906);
#906 = CARTESIAN_POINT('',(186.15625,-60.125,1.51));
#907 = LINE('',#908,#909);
#908 = CARTESIAN_POINT('',(186.15625,-60.125,1.51));
#909 = VECTOR('',#910,1.);
#910 = DIRECTION('',(1.,0.,0.));
#911 = ORIENTED_EDGE('',*,*,#912,.F.);
#912 = EDGE_CURVE('',#913,#905,#915,.T.);
#913 = VERTEX_POINT('',#914);
#914 = CARTESIAN_POINT('',(185.,-58.96875,1.51));
#915 = CIRCLE('',#916,1.156298539074);
#916 = AXIS2_PLACEMENT_3D('',#917,#918,#919);
#917 = CARTESIAN_POINT('',(186.15629853805,-58.96870146194,1.51));
#918 = DIRECTION('',(0.,0.,1.));
#919 = DIRECTION('',(-0.999999999119,-4.197709661878E-05,0.));
#920 = ORIENTED_EDGE('',*,*,#921,.F.);
#921 = EDGE_CURVE('',#922,#913,#924,.T.);
#922 = VERTEX_POINT('',#923);
#923 = CARTESIAN_POINT('',(185.,-56.65625,1.51));
#924 = LINE('',#925,#926);
#925 = CARTESIAN_POINT('',(185.,-56.65625,1.51));
#926 = VECTOR('',#927,1.);
#927 = DIRECTION('',(0.,-1.,0.));
#928 = ORIENTED_EDGE('',*,*,#929,.F.);
#929 = EDGE_CURVE('',#930,#922,#932,.T.);
#930 = VERTEX_POINT('',#931);
#931 = CARTESIAN_POINT('',(183.84375,-55.5,1.51));
#932 = CIRCLE('',#933,1.156298539074);
#933 = AXIS2_PLACEMENT_3D('',#934,#935,#936);
#934 = CARTESIAN_POINT('',(183.84370146194,-56.65629853805,1.51));
#935 = DIRECTION('',(0.,0.,-1.));
#936 = DIRECTION('',(4.19770965942E-05,0.999999999119,0.));
#937 = ORIENTED_EDGE('',*,*,#938,.F.);
#938 = EDGE_CURVE('',#939,#930,#941,.T.);
#939 = VERTEX_POINT('',#940);
#940 = CARTESIAN_POINT('',(167.65625,-55.5,1.51));
#941 = LINE('',#942,#943);
#942 = CARTESIAN_POINT('',(167.65625,-55.5,1.51));
#943 = VECTOR('',#944,1.);
#944 = DIRECTION('',(1.,0.,0.));
#945 = ORIENTED_EDGE('',*,*,#946,.F.);
#946 = EDGE_CURVE('',#107,#939,#947,.T.);
#947 = CIRCLE('',#948,1.156298539074);
#948 = AXIS2_PLACEMENT_3D('',#949,#950,#951);
#949 = CARTESIAN_POINT('',(167.65629853805,-54.34370146194,1.51));
#950 = DIRECTION('',(0.,0.,1.));
#951 = DIRECTION('',(-0.999999999119,-4.197709661878E-05,0.));
#952 = ORIENTED_EDGE('',*,*,#106,.F.);
#953 = FACE_BOUND('',#954,.T.);
#954 = EDGE_LOOP('',(#955));
#955 = ORIENTED_EDGE('',*,*,#956,.T.);
#956 = EDGE_CURVE('',#957,#957,#959,.T.);
#957 = VERTEX_POINT('',#958);
#958 = CARTESIAN_POINT('',(129.5,-93.6,1.51));
#959 = CIRCLE('',#960,1.1);
#960 = AXIS2_PLACEMENT_3D('',#961,#962,#963);
#961 = CARTESIAN_POINT('',(129.5,-92.5,1.51));
#962 = DIRECTION('',(-0.,0.,-1.));
#963 = DIRECTION('',(-0.,-1.,0.));
#964 = FACE_BOUND('',#965,.T.);
#965 = EDGE_LOOP('',(#966));
#966 = ORIENTED_EDGE('',*,*,#967,.T.);
#967 = EDGE_CURVE('',#968,#968,#970,.T.);
#968 = VERTEX_POINT('',#969);
#969 = CARTESIAN_POINT('',(185.,-112.1,1.51));
#970 = CIRCLE('',#971,1.1);
#971 = AXIS2_PLACEMENT_3D('',#972,#973,#974);
#972 = CARTESIAN_POINT('',(185.,-111.,1.51));
#973 = DIRECTION('',(-0.,0.,-1.));
#974 = DIRECTION('',(-0.,-1.,0.));
#975 = FACE_BOUND('',#976,.T.);
#976 = EDGE_LOOP('',(#977));
#977 = ORIENTED_EDGE('',*,*,#978,.T.);
#978 = EDGE_CURVE('',#979,#979,#981,.T.);
#979 = VERTEX_POINT('',#980);
#980 = CARTESIAN_POINT('',(203.5,-116.725,1.51));
#981 = CIRCLE('',#982,1.1);
#982 = AXIS2_PLACEMENT_3D('',#983,#984,#985);
#983 = CARTESIAN_POINT('',(203.5,-115.625,1.51));
#984 = DIRECTION('',(-0.,0.,-1.));
#985 = DIRECTION('',(-0.,-1.,0.));
#986 = FACE_BOUND('',#987,.T.);
#987 = EDGE_LOOP('',(#988));
#988 = ORIENTED_EDGE('',*,*,#989,.T.);
#989 = EDGE_CURVE('',#990,#990,#992,.T.);
#990 = VERTEX_POINT('',#991);
#991 = CARTESIAN_POINT('',(203.5,-98.138506,1.51));
#992 = CIRCLE('',#993,1.1);
#993 = AXIS2_PLACEMENT_3D('',#994,#995,#996);
#994 = CARTESIAN_POINT('',(203.5,-97.038506,1.51));
#995 = DIRECTION('',(-0.,0.,-1.));
#996 = DIRECTION('',(-0.,-1.,0.));
#997 = FACE_BOUND('',#998,.T.);
#998 = EDGE_LOOP('',(#999));
#999 = ORIENTED_EDGE('',*,*,#1000,.T.);
#1000 = EDGE_CURVE('',#1001,#1001,#1003,.T.);
#1001 = VERTEX_POINT('',#1002);
#1002 = CARTESIAN_POINT('',(148.,-88.975,1.51));
#1003 = CIRCLE('',#1004,1.1);
#1004 = AXIS2_PLACEMENT_3D('',#1005,#1006,#1007);
#1005 = CARTESIAN_POINT('',(148.,-87.875,1.51));
#1006 = DIRECTION('',(-0.,0.,-1.));
#1007 = DIRECTION('',(-0.,-1.,0.));
#1008 = FACE_BOUND('',#1009,.T.);
#1009 = EDGE_LOOP('',(#1010));
#1010 = ORIENTED_EDGE('',*,*,#1011,.T.);
#1011 = EDGE_CURVE('',#1012,#1012,#1014,.T.);
#1012 = VERTEX_POINT('',#1013);
#1013 = CARTESIAN_POINT('',(129.5,-75.1,1.51));
#1014 = CIRCLE('',#1015,1.1);
#1015 = AXIS2_PLACEMENT_3D('',#1016,#1017,#1018);
#1016 = CARTESIAN_POINT('',(129.5,-74.,1.51));
#1017 = DIRECTION('',(-0.,0.,-1.));
#1018 = DIRECTION('',(-0.,-1.,0.));
#1019 = FACE_BOUND('',#1020,.T.);
#1020 = EDGE_LOOP('',(#1021));
#1021 = ORIENTED_EDGE('',*,*,#1022,.T.);
#1022 = EDGE_CURVE('',#1023,#1023,#1025,.T.);
#1023 = VERTEX_POINT('',#1024);
#1024 = CARTESIAN_POINT('',(148.,-70.475,1.51));
#1025 = CIRCLE('',#1026,1.1);
#1026 = AXIS2_PLACEMENT_3D('',#1027,#1028,#1029);
#1027 = CARTESIAN_POINT('',(148.,-69.375,1.51));
#1028 = DIRECTION('',(-0.,0.,-1.));
#1029 = DIRECTION('',(-0.,-1.,0.));
#1030 = FACE_BOUND('',#1031,.T.);
#1031 = EDGE_LOOP('',(#1032));
#1032 = ORIENTED_EDGE('',*,*,#1033,.T.);
#1033 = EDGE_CURVE('',#1034,#1034,#1036,.T.);
#1034 = VERTEX_POINT('',#1035);
#1035 = CARTESIAN_POINT('',(166.5,-88.975,1.51));
#1036 = CIRCLE('',#1037,1.1);
#1037 = AXIS2_PLACEMENT_3D('',#1038,#1039,#1040);
#1038 = CARTESIAN_POINT('',(166.5,-87.875,1.51));
#1039 = DIRECTION('',(-0.,0.,-1.));
#1040 = DIRECTION('',(-0.,-1.,0.));
#1041 = FACE_BOUND('',#1042,.T.);
#1042 = EDGE_LOOP('',(#1043));
#1043 = ORIENTED_EDGE('',*,*,#1044,.T.);
#1044 = EDGE_CURVE('',#1045,#1045,#1047,.T.);
#1045 = VERTEX_POINT('',#1046);
#1046 = CARTESIAN_POINT('',(166.5,-70.475,1.51));
#1047 = CIRCLE('',#1048,1.1);
#1048 = AXIS2_PLACEMENT_3D('',#1049,#1050,#1051);
#1049 = CARTESIAN_POINT('',(166.5,-69.375,1.51));
#1050 = DIRECTION('',(-0.,0.,-1.));
#1051 = DIRECTION('',(-0.,-1.,0.));
#1052 = FACE_BOUND('',#1053,.T.);
#1053 = EDGE_LOOP('',(#1054));
#1054 = ORIENTED_EDGE('',*,*,#1055,.T.);
#1055 = EDGE_CURVE('',#1056,#1056,#1058,.T.);
#1056 = VERTEX_POINT('',#1057);
#1057 = CARTESIAN_POINT('',(185.,-75.1,1.51));
#1058 = CIRCLE('',#1059,1.1);
#1059 = AXIS2_PLACEMENT_3D('',#1060,#1061,#1062);
#1060 = CARTESIAN_POINT('',(185.,-74.,1.51));
#1061 = DIRECTION('',(-0.,0.,-1.));
#1062 = DIRECTION('',(-0.,-1.,0.));
#1063 = PLANE('',#1064);
#1064 = AXIS2_PLACEMENT_3D('',#1065,#1066,#1067);
#1065 = CARTESIAN_POINT('',(0.,0.,1.51));
#1066 = DIRECTION('',(0.,0.,1.));
#1067 = DIRECTION('',(1.,0.,-0.));
#1068 = ADVANCED_FACE('',(#1069),#1080,.T.);
#1069 = FACE_BOUND('',#1070,.T.);
#1070 = EDGE_LOOP('',(#1071,#1077,#1078,#1079));
#1071 = ORIENTED_EDGE('',*,*,#1072,.T.);
#1072 = EDGE_CURVE('',#139,#607,#1073,.T.);
#1073 = LINE('',#1074,#1075);
#1074 = CARTESIAN_POINT('',(148.,-52.03125,0.));
#1075 = VECTOR('',#1076,1.);
#1076 = DIRECTION('',(0.,0.,1.));
#1077 = ORIENTED_EDGE('',*,*,#606,.T.);
#1078 = ORIENTED_EDGE('',*,*,#74,.F.);
#1079 = ORIENTED_EDGE('',*,*,#138,.F.);
#1080 = CYLINDRICAL_SURFACE('',#1081,1.156298539074);
#1081 = AXIS2_PLACEMENT_3D('',#1082,#1083,#1084);
#1082 = CARTESIAN_POINT('',(149.15629853805,-52.03129853805,0.));
#1083 = DIRECTION('',(0.,0.,-1.));
#1084 = DIRECTION('',(-0.999999999119,4.197709661878E-05,0.));
#1085 = ADVANCED_FACE('',(#1086),#1097,.F.);
#1086 = FACE_BOUND('',#1087,.T.);
#1087 = EDGE_LOOP('',(#1088,#1089,#1090,#1096));
#1088 = ORIENTED_EDGE('',*,*,#114,.T.);
#1089 = ORIENTED_EDGE('',*,*,#946,.T.);
#1090 = ORIENTED_EDGE('',*,*,#1091,.F.);
#1091 = EDGE_CURVE('',#471,#939,#1092,.T.);
#1092 = LINE('',#1093,#1094);
#1093 = CARTESIAN_POINT('',(167.65625,-55.5,0.));
#1094 = VECTOR('',#1095,1.);
#1095 = DIRECTION('',(0.,0.,1.));
#1096 = ORIENTED_EDGE('',*,*,#478,.F.);
#1097 = CYLINDRICAL_SURFACE('',#1098,1.156298539074);
#1098 = AXIS2_PLACEMENT_3D('',#1099,#1100,#1101);
#1099 = CARTESIAN_POINT('',(167.65629853805,-54.34370146194,0.));
#1100 = DIRECTION('',(-0.,-0.,-1.));
#1101 = DIRECTION('',(-0.999999999119,-4.197709661878E-05,0.));
#1102 = ADVANCED_FACE('',(#1103),#1114,.T.);
#1103 = FACE_BOUND('',#1104,.T.);
#1104 = EDGE_LOOP('',(#1105,#1111,#1112,#1113));
#1105 = ORIENTED_EDGE('',*,*,#1106,.T.);
#1106 = EDGE_CURVE('',#148,#616,#1107,.T.);
#1107 = LINE('',#1108,#1109);
#1108 = CARTESIAN_POINT('',(148.,-54.34375,0.));
#1109 = VECTOR('',#1110,1.);
#1110 = DIRECTION('',(0.,0.,1.));
#1111 = ORIENTED_EDGE('',*,*,#615,.T.);
#1112 = ORIENTED_EDGE('',*,*,#1072,.F.);
#1113 = ORIENTED_EDGE('',*,*,#147,.F.);
#1114 = PLANE('',#1115);
#1115 = AXIS2_PLACEMENT_3D('',#1116,#1117,#1118);
#1116 = CARTESIAN_POINT('',(148.,-54.34375,0.));
#1117 = DIRECTION('',(-1.,0.,0.));
#1118 = DIRECTION('',(0.,1.,0.));
#1119 = ADVANCED_FACE('',(#1120),#1131,.T.);
#1120 = FACE_BOUND('',#1121,.T.);
#1121 = EDGE_LOOP('',(#1122,#1123,#1124,#1130));
#1122 = ORIENTED_EDGE('',*,*,#1091,.T.);
#1123 = ORIENTED_EDGE('',*,*,#938,.T.);
#1124 = ORIENTED_EDGE('',*,*,#1125,.F.);
#1125 = EDGE_CURVE('',#462,#930,#1126,.T.);
#1126 = LINE('',#1127,#1128);
#1127 = CARTESIAN_POINT('',(183.84375,-55.5,0.));
#1128 = VECTOR('',#1129,1.);
#1129 = DIRECTION('',(0.,0.,1.));
#1130 = ORIENTED_EDGE('',*,*,#470,.F.);
#1131 = PLANE('',#1132);
#1132 = AXIS2_PLACEMENT_3D('',#1133,#1134,#1135);
#1133 = CARTESIAN_POINT('',(167.65625,-55.5,0.));
#1134 = DIRECTION('',(0.,1.,0.));
#1135 = DIRECTION('',(1.,0.,0.));
#1136 = ADVANCED_FACE('',(#1137),#1148,.F.);
#1137 = FACE_BOUND('',#1138,.T.);
#1138 = EDGE_LOOP('',(#1139,#1145,#1146,#1147));
#1139 = ORIENTED_EDGE('',*,*,#1140,.T.);
#1140 = EDGE_CURVE('',#156,#624,#1141,.T.);
#1141 = LINE('',#1142,#1143);
#1142 = CARTESIAN_POINT('',(146.84375,-55.5,0.));
#1143 = VECTOR('',#1144,1.);
#1144 = DIRECTION('',(0.,0.,1.));
#1145 = ORIENTED_EDGE('',*,*,#623,.T.);
#1146 = ORIENTED_EDGE('',*,*,#1106,.F.);
#1147 = ORIENTED_EDGE('',*,*,#155,.F.);
#1148 = CYLINDRICAL_SURFACE('',#1149,1.156298539074);
#1149 = AXIS2_PLACEMENT_3D('',#1150,#1151,#1152);
#1150 = CARTESIAN_POINT('',(146.84370146194,-54.34370146194,0.));
#1151 = DIRECTION('',(-0.,-0.,-1.));
#1152 = DIRECTION('',(4.19770965942E-05,-0.999999999119,0.));
#1153 = ADVANCED_FACE('',(#1154),#1165,.T.);
#1154 = FACE_BOUND('',#1155,.T.);
#1155 = EDGE_LOOP('',(#1156,#1157,#1158,#1164));
#1156 = ORIENTED_EDGE('',*,*,#1125,.T.);
#1157 = ORIENTED_EDGE('',*,*,#929,.T.);
#1158 = ORIENTED_EDGE('',*,*,#1159,.F.);
#1159 = EDGE_CURVE('',#454,#922,#1160,.T.);
#1160 = LINE('',#1161,#1162);
#1161 = CARTESIAN_POINT('',(185.,-56.65625,0.));
#1162 = VECTOR('',#1163,1.);
#1163 = DIRECTION('',(0.,0.,1.));
#1164 = ORIENTED_EDGE('',*,*,#461,.F.);
#1165 = CYLINDRICAL_SURFACE('',#1166,1.156298539074);
#1166 = AXIS2_PLACEMENT_3D('',#1167,#1168,#1169);
#1167 = CARTESIAN_POINT('',(183.84370146194,-56.65629853805,0.));
#1168 = DIRECTION('',(0.,0.,-1.));
#1169 = DIRECTION('',(4.19770965942E-05,0.999999999119,0.));
#1170 = ADVANCED_FACE('',(#1171),#1182,.T.);
#1171 = FACE_BOUND('',#1172,.T.);
#1172 = EDGE_LOOP('',(#1173,#1179,#1180,#1181));
#1173 = ORIENTED_EDGE('',*,*,#1174,.T.);
#1174 = EDGE_CURVE('',#165,#633,#1175,.T.);
#1175 = LINE('',#1176,#1177);
#1176 = CARTESIAN_POINT('',(130.65625,-55.5,0.));
#1177 = VECTOR('',#1178,1.);
#1178 = DIRECTION('',(0.,0.,1.));
#1179 = ORIENTED_EDGE('',*,*,#632,.T.);
#1180 = ORIENTED_EDGE('',*,*,#1140,.F.);
#1181 = ORIENTED_EDGE('',*,*,#164,.F.);
#1182 = PLANE('',#1183);
#1183 = AXIS2_PLACEMENT_3D('',#1184,#1185,#1186);
#1184 = CARTESIAN_POINT('',(130.65625,-55.5,0.));
#1185 = DIRECTION('',(0.,1.,0.));
#1186 = DIRECTION('',(1.,0.,0.));
#1187 = ADVANCED_FACE('',(#1188),#1199,.T.);
#1188 = FACE_BOUND('',#1189,.T.);
#1189 = EDGE_LOOP('',(#1190,#1191,#1192,#1198));
#1190 = ORIENTED_EDGE('',*,*,#1159,.T.);
#1191 = ORIENTED_EDGE('',*,*,#921,.T.);
#1192 = ORIENTED_EDGE('',*,*,#1193,.F.);
#1193 = EDGE_CURVE('',#445,#913,#1194,.T.);
#1194 = LINE('',#1195,#1196);
#1195 = CARTESIAN_POINT('',(185.,-58.96875,0.));
#1196 = VECTOR('',#1197,1.);
#1197 = DIRECTION('',(0.,0.,1.));
#1198 = ORIENTED_EDGE('',*,*,#453,.F.);
#1199 = PLANE('',#1200);
#1200 = AXIS2_PLACEMENT_3D('',#1201,#1202,#1203);
#1201 = CARTESIAN_POINT('',(185.,-56.65625,0.));
#1202 = DIRECTION('',(1.,0.,-0.));
#1203 = DIRECTION('',(0.,-1.,0.));
#1204 = ADVANCED_FACE('',(#1205),#1216,.T.);
#1205 = FACE_BOUND('',#1206,.T.);
#1206 = EDGE_LOOP('',(#1207,#1213,#1214,#1215));
#1207 = ORIENTED_EDGE('',*,*,#1208,.T.);
#1208 = EDGE_CURVE('',#173,#641,#1209,.T.);
#1209 = LINE('',#1210,#1211);
#1210 = CARTESIAN_POINT('',(129.5,-56.65625,0.));
#1211 = VECTOR('',#1212,1.);
#1212 = DIRECTION('',(0.,0.,1.));
#1213 = ORIENTED_EDGE('',*,*,#640,.T.);
#1214 = ORIENTED_EDGE('',*,*,#1174,.F.);
#1215 = ORIENTED_EDGE('',*,*,#172,.F.);
#1216 = CYLINDRICAL_SURFACE('',#1217,1.156298539074);
#1217 = AXIS2_PLACEMENT_3D('',#1218,#1219,#1220);
#1218 = CARTESIAN_POINT('',(130.65629853805,-56.65629853805,0.));
#1219 = DIRECTION('',(0.,0.,-1.));
#1220 = DIRECTION('',(-0.999999999119,4.197709661878E-05,0.));
#1221 = ADVANCED_FACE('',(#1222),#1233,.F.);
#1222 = FACE_BOUND('',#1223,.T.);
#1223 = EDGE_LOOP('',(#1224,#1225,#1226,#1232));
#1224 = ORIENTED_EDGE('',*,*,#1193,.T.);
#1225 = ORIENTED_EDGE('',*,*,#912,.T.);
#1226 = ORIENTED_EDGE('',*,*,#1227,.F.);
#1227 = EDGE_CURVE('',#437,#905,#1228,.T.);
#1228 = LINE('',#1229,#1230);
#1229 = CARTESIAN_POINT('',(186.15625,-60.125,0.));
#1230 = VECTOR('',#1231,1.);
#1231 = DIRECTION('',(0.,0.,1.));
#1232 = ORIENTED_EDGE('',*,*,#444,.F.);
#1233 = CYLINDRICAL_SURFACE('',#1234,1.156298539074);
#1234 = AXIS2_PLACEMENT_3D('',#1235,#1236,#1237);
#1235 = CARTESIAN_POINT('',(186.15629853805,-58.96870146194,0.));
#1236 = DIRECTION('',(-0.,-0.,-1.));
#1237 = DIRECTION('',(-0.999999999119,-4.197709661878E-05,0.));
#1238 = ADVANCED_FACE('',(#1239),#1250,.T.);
#1239 = FACE_BOUND('',#1240,.T.);
#1240 = EDGE_LOOP('',(#1241,#1247,#1248,#1249));
#1241 = ORIENTED_EDGE('',*,*,#1242,.T.);
#1242 = EDGE_CURVE('',#182,#650,#1243,.T.);
#1243 = LINE('',#1244,#1245);
#1244 = CARTESIAN_POINT('',(129.5,-58.96875,0.));
#1245 = VECTOR('',#1246,1.);
#1246 = DIRECTION('',(0.,0.,1.));
#1247 = ORIENTED_EDGE('',*,*,#649,.T.);
#1248 = ORIENTED_EDGE('',*,*,#1208,.F.);
#1249 = ORIENTED_EDGE('',*,*,#181,.F.);
#1250 = PLANE('',#1251);
#1251 = AXIS2_PLACEMENT_3D('',#1252,#1253,#1254);
#1252 = CARTESIAN_POINT('',(129.5,-58.96875,0.));
#1253 = DIRECTION('',(-1.,0.,0.));
#1254 = DIRECTION('',(0.,1.,0.));
#1255 = ADVANCED_FACE('',(#1256),#1267,.T.);
#1256 = FACE_BOUND('',#1257,.T.);
#1257 = EDGE_LOOP('',(#1258,#1259,#1260,#1266));
#1258 = ORIENTED_EDGE('',*,*,#1227,.T.);
#1259 = ORIENTED_EDGE('',*,*,#904,.T.);
#1260 = ORIENTED_EDGE('',*,*,#1261,.F.);
#1261 = EDGE_CURVE('',#428,#896,#1262,.T.);
#1262 = LINE('',#1263,#1264);
#1263 = CARTESIAN_POINT('',(220.84375,-60.125,0.));
#1264 = VECTOR('',#1265,1.);
#1265 = DIRECTION('',(0.,0.,1.));
#1266 = ORIENTED_EDGE('',*,*,#436,.F.);
#1267 = PLANE('',#1268);
#1268 = AXIS2_PLACEMENT_3D('',#1269,#1270,#1271);
#1269 = CARTESIAN_POINT('',(186.15625,-60.125,0.));
#1270 = DIRECTION('',(0.,1.,0.));
#1271 = DIRECTION('',(1.,0.,0.));
#1272 = ADVANCED_FACE('',(#1273),#1284,.F.);
#1273 = FACE_BOUND('',#1274,.T.);
#1274 = EDGE_LOOP('',(#1275,#1281,#1282,#1283));
#1275 = ORIENTED_EDGE('',*,*,#1276,.T.);
#1276 = EDGE_CURVE('',#190,#658,#1277,.T.);
#1277 = LINE('',#1278,#1279);
#1278 = CARTESIAN_POINT('',(128.34375,-60.125,0.));
#1279 = VECTOR('',#1280,1.);
#1280 = DIRECTION('',(0.,0.,1.));
#1281 = ORIENTED_EDGE('',*,*,#657,.T.);
#1282 = ORIENTED_EDGE('',*,*,#1242,.F.);
#1283 = ORIENTED_EDGE('',*,*,#189,.F.);
#1284 = CYLINDRICAL_SURFACE('',#1285,1.156298539074);
#1285 = AXIS2_PLACEMENT_3D('',#1286,#1287,#1288);
#1286 = CARTESIAN_POINT('',(128.34370146194,-58.96870146194,0.));
#1287 = DIRECTION('',(-0.,-0.,-1.));
#1288 = DIRECTION('',(4.19770965942E-05,-0.999999999119,0.));
#1289 = ADVANCED_FACE('',(#1290),#1301,.T.);
#1290 = FACE_BOUND('',#1291,.T.);
#1291 = EDGE_LOOP('',(#1292,#1293,#1294,#1300));
#1292 = ORIENTED_EDGE('',*,*,#1261,.T.);
#1293 = ORIENTED_EDGE('',*,*,#895,.T.);
#1294 = ORIENTED_EDGE('',*,*,#1295,.F.);
#1295 = EDGE_CURVE('',#420,#888,#1296,.T.);
#1296 = LINE('',#1297,#1298);
#1297 = CARTESIAN_POINT('',(222.,-61.28125,0.));
#1298 = VECTOR('',#1299,1.);
#1299 = DIRECTION('',(0.,0.,1.));
#1300 = ORIENTED_EDGE('',*,*,#427,.F.);
#1301 = CYLINDRICAL_SURFACE('',#1302,1.156298539074);
#1302 = AXIS2_PLACEMENT_3D('',#1303,#1304,#1305);
#1303 = CARTESIAN_POINT('',(220.84370146194,-61.28129853805,0.));
#1304 = DIRECTION('',(0.,0.,-1.));
#1305 = DIRECTION('',(4.19770965942E-05,0.999999999119,0.));
#1306 = ADVANCED_FACE('',(#1307),#1318,.T.);
#1307 = FACE_BOUND('',#1308,.T.);
#1308 = EDGE_LOOP('',(#1309,#1315,#1316,#1317));
#1309 = ORIENTED_EDGE('',*,*,#1310,.T.);
#1310 = EDGE_CURVE('',#199,#667,#1311,.T.);
#1311 = LINE('',#1312,#1313);
#1312 = CARTESIAN_POINT('',(112.15625,-60.125,0.));
#1313 = VECTOR('',#1314,1.);
#1314 = DIRECTION('',(0.,0.,1.));
#1315 = ORIENTED_EDGE('',*,*,#666,.T.);
#1316 = ORIENTED_EDGE('',*,*,#1276,.F.);
#1317 = ORIENTED_EDGE('',*,*,#198,.F.);
#1318 = PLANE('',#1319);
#1319 = AXIS2_PLACEMENT_3D('',#1320,#1321,#1322);
#1320 = CARTESIAN_POINT('',(112.15625,-60.125,0.));
#1321 = DIRECTION('',(0.,1.,0.));
#1322 = DIRECTION('',(1.,0.,0.));
#1323 = ADVANCED_FACE('',(#1324),#1335,.T.);
#1324 = FACE_BOUND('',#1325,.T.);
#1325 = EDGE_LOOP('',(#1326,#1327,#1328,#1334));
#1326 = ORIENTED_EDGE('',*,*,#1295,.T.);
#1327 = ORIENTED_EDGE('',*,*,#887,.T.);
#1328 = ORIENTED_EDGE('',*,*,#1329,.F.);
#1329 = EDGE_CURVE('',#411,#879,#1330,.T.);
#1330 = LINE('',#1331,#1332);
#1331 = CARTESIAN_POINT('',(222.,-137.59375,0.));
#1332 = VECTOR('',#1333,1.);
#1333 = DIRECTION('',(0.,0.,1.));
#1334 = ORIENTED_EDGE('',*,*,#419,.F.);
#1335 = PLANE('',#1336);
#1336 = AXIS2_PLACEMENT_3D('',#1337,#1338,#1339);
#1337 = CARTESIAN_POINT('',(222.,-61.28125,0.));
#1338 = DIRECTION('',(1.,0.,-0.));
#1339 = DIRECTION('',(0.,-1.,0.));
#1340 = ADVANCED_FACE('',(#1341),#1352,.T.);
#1341 = FACE_BOUND('',#1342,.T.);
#1342 = EDGE_LOOP('',(#1343,#1349,#1350,#1351));
#1343 = ORIENTED_EDGE('',*,*,#1344,.T.);
#1344 = EDGE_CURVE('',#207,#675,#1345,.T.);
#1345 = LINE('',#1346,#1347);
#1346 = CARTESIAN_POINT('',(111.,-61.28125,0.));
#1347 = VECTOR('',#1348,1.);
#1348 = DIRECTION('',(0.,0.,1.));
#1349 = ORIENTED_EDGE('',*,*,#674,.T.);
#1350 = ORIENTED_EDGE('',*,*,#1310,.F.);
#1351 = ORIENTED_EDGE('',*,*,#206,.F.);
#1352 = CYLINDRICAL_SURFACE('',#1353,1.156298539074);
#1353 = AXIS2_PLACEMENT_3D('',#1354,#1355,#1356);
#1354 = CARTESIAN_POINT('',(112.15629853805,-61.28129853805,0.));
#1355 = DIRECTION('',(0.,0.,-1.));
#1356 = DIRECTION('',(-0.999999999119,4.197709661878E-05,0.));
#1357 = ADVANCED_FACE('',(#1358),#1369,.T.);
#1358 = FACE_BOUND('',#1359,.T.);
#1359 = EDGE_LOOP('',(#1360,#1361,#1362,#1368));
#1360 = ORIENTED_EDGE('',*,*,#1329,.T.);
#1361 = ORIENTED_EDGE('',*,*,#878,.T.);
#1362 = ORIENTED_EDGE('',*,*,#1363,.F.);
#1363 = EDGE_CURVE('',#403,#871,#1364,.T.);
#1364 = LINE('',#1365,#1366);
#1365 = CARTESIAN_POINT('',(220.84375,-138.75,0.));
#1366 = VECTOR('',#1367,1.);
#1367 = DIRECTION('',(0.,0.,1.));
#1368 = ORIENTED_EDGE('',*,*,#410,.F.);
#1369 = CYLINDRICAL_SURFACE('',#1370,1.156298539074);
#1370 = AXIS2_PLACEMENT_3D('',#1371,#1372,#1373);
#1371 = CARTESIAN_POINT('',(220.84370146194,-137.5937014619,0.));
#1372 = DIRECTION('',(0.,0.,-1.));
#1373 = DIRECTION('',(0.999999999119,-4.19770965942E-05,0.));
#1374 = ADVANCED_FACE('',(#1375),#1386,.T.);
#1375 = FACE_BOUND('',#1376,.T.);
#1376 = EDGE_LOOP('',(#1377,#1383,#1384,#1385));
#1377 = ORIENTED_EDGE('',*,*,#1378,.T.);
#1378 = EDGE_CURVE('',#216,#684,#1379,.T.);
#1379 = LINE('',#1380,#1381);
#1380 = CARTESIAN_POINT('',(111.,-114.46875,0.));
#1381 = VECTOR('',#1382,1.);
#1382 = DIRECTION('',(0.,0.,1.));
#1383 = ORIENTED_EDGE('',*,*,#683,.T.);
#1384 = ORIENTED_EDGE('',*,*,#1344,.F.);
#1385 = ORIENTED_EDGE('',*,*,#215,.F.);
#1386 = PLANE('',#1387);
#1387 = AXIS2_PLACEMENT_3D('',#1388,#1389,#1390);
#1388 = CARTESIAN_POINT('',(111.,-114.46875,0.));
#1389 = DIRECTION('',(-1.,0.,0.));
#1390 = DIRECTION('',(0.,1.,0.));
#1391 = ADVANCED_FACE('',(#1392),#1403,.T.);
#1392 = FACE_BOUND('',#1393,.T.);
#1393 = EDGE_LOOP('',(#1394,#1395,#1396,#1402));
#1394 = ORIENTED_EDGE('',*,*,#1363,.T.);
#1395 = ORIENTED_EDGE('',*,*,#870,.T.);
#1396 = ORIENTED_EDGE('',*,*,#1397,.F.);
#1397 = EDGE_CURVE('',#394,#862,#1398,.T.);
#1398 = LINE('',#1399,#1400);
#1399 = CARTESIAN_POINT('',(204.65625,-138.75,0.));
#1400 = VECTOR('',#1401,1.);
#1401 = DIRECTION('',(0.,0.,1.));
#1402 = ORIENTED_EDGE('',*,*,#402,.F.);
#1403 = PLANE('',#1404);
#1404 = AXIS2_PLACEMENT_3D('',#1405,#1406,#1407);
#1405 = CARTESIAN_POINT('',(220.84375,-138.75,0.));
#1406 = DIRECTION('',(0.,-1.,0.));
#1407 = DIRECTION('',(-1.,0.,0.));
#1408 = ADVANCED_FACE('',(#1409),#1420,.T.);
#1409 = FACE_BOUND('',#1410,.T.);
#1410 = EDGE_LOOP('',(#1411,#1417,#1418,#1419));
#1411 = ORIENTED_EDGE('',*,*,#1412,.T.);
#1412 = EDGE_CURVE('',#224,#692,#1413,.T.);
#1413 = LINE('',#1414,#1415);
#1414 = CARTESIAN_POINT('',(112.15625,-115.625,0.));
#1415 = VECTOR('',#1416,1.);
#1416 = DIRECTION('',(0.,0.,1.));
#1417 = ORIENTED_EDGE('',*,*,#691,.T.);
#1418 = ORIENTED_EDGE('',*,*,#1378,.F.);
#1419 = ORIENTED_EDGE('',*,*,#223,.F.);
#1420 = CYLINDRICAL_SURFACE('',#1421,1.156298539074);
#1421 = AXIS2_PLACEMENT_3D('',#1422,#1423,#1424);
#1422 = CARTESIAN_POINT('',(112.15629853805,-114.4687014619,0.));
#1423 = DIRECTION('',(0.,0.,-1.));
#1424 = DIRECTION('',(-4.197709661878E-05,-0.999999999119,-0.));
#1425 = ADVANCED_FACE('',(#1426),#1437,.T.);
#1426 = FACE_BOUND('',#1427,.T.);
#1427 = EDGE_LOOP('',(#1428,#1429,#1430,#1436));
#1428 = ORIENTED_EDGE('',*,*,#1397,.T.);
#1429 = ORIENTED_EDGE('',*,*,#861,.T.);
#1430 = ORIENTED_EDGE('',*,*,#1431,.F.);
#1431 = EDGE_CURVE('',#386,#854,#1432,.T.);
#1432 = LINE('',#1433,#1434);
#1433 = CARTESIAN_POINT('',(203.5,-137.59375,0.));
#1434 = VECTOR('',#1435,1.);
#1435 = DIRECTION('',(0.,0.,1.));
#1436 = ORIENTED_EDGE('',*,*,#393,.F.);
#1437 = CYLINDRICAL_SURFACE('',#1438,1.156298539074);
#1438 = AXIS2_PLACEMENT_3D('',#1439,#1440,#1441);
#1439 = CARTESIAN_POINT('',(204.65629853805,-137.5937014619,0.));
#1440 = DIRECTION('',(0.,0.,-1.));
#1441 = DIRECTION('',(-4.19770965942E-05,-0.999999999119,-0.));
#1442 = ADVANCED_FACE('',(#1443),#1454,.T.);
#1443 = FACE_BOUND('',#1444,.T.);
#1444 = EDGE_LOOP('',(#1445,#1451,#1452,#1453));
#1445 = ORIENTED_EDGE('',*,*,#1446,.T.);
#1446 = EDGE_CURVE('',#233,#701,#1447,.T.);
#1447 = LINE('',#1448,#1449);
#1448 = CARTESIAN_POINT('',(128.34375,-115.625,0.));
#1449 = VECTOR('',#1450,1.);
#1450 = DIRECTION('',(0.,0.,1.));
#1451 = ORIENTED_EDGE('',*,*,#700,.T.);
#1452 = ORIENTED_EDGE('',*,*,#1412,.F.);
#1453 = ORIENTED_EDGE('',*,*,#232,.F.);
#1454 = PLANE('',#1455);
#1455 = AXIS2_PLACEMENT_3D('',#1456,#1457,#1458);
#1456 = CARTESIAN_POINT('',(128.34375,-115.625,0.));
#1457 = DIRECTION('',(0.,-1.,0.));
#1458 = DIRECTION('',(-1.,0.,0.));
#1459 = ADVANCED_FACE('',(#1460),#1471,.T.);
#1460 = FACE_BOUND('',#1461,.T.);
#1461 = EDGE_LOOP('',(#1462,#1463,#1464,#1470));
#1462 = ORIENTED_EDGE('',*,*,#1431,.T.);
#1463 = ORIENTED_EDGE('',*,*,#853,.T.);
#1464 = ORIENTED_EDGE('',*,*,#1465,.F.);
#1465 = EDGE_CURVE('',#377,#845,#1466,.T.);
#1466 = LINE('',#1467,#1468);
#1467 = CARTESIAN_POINT('',(203.5,-135.28125,0.));
#1468 = VECTOR('',#1469,1.);
#1469 = DIRECTION('',(0.,0.,1.));
#1470 = ORIENTED_EDGE('',*,*,#385,.F.);
#1471 = PLANE('',#1472);
#1472 = AXIS2_PLACEMENT_3D('',#1473,#1474,#1475);
#1473 = CARTESIAN_POINT('',(203.5,-137.59375,0.));
#1474 = DIRECTION('',(-1.,0.,0.));
#1475 = DIRECTION('',(0.,1.,0.));
#1476 = ADVANCED_FACE('',(#1477),#1488,.T.);
#1477 = FACE_BOUND('',#1478,.T.);
#1478 = EDGE_LOOP('',(#1479,#1485,#1486,#1487));
#1479 = ORIENTED_EDGE('',*,*,#1480,.T.);
#1480 = EDGE_CURVE('',#241,#709,#1481,.T.);
#1481 = LINE('',#1482,#1483);
#1482 = CARTESIAN_POINT('',(129.5,-114.46875,0.));
#1483 = VECTOR('',#1484,1.);
#1484 = DIRECTION('',(0.,0.,1.));
#1485 = ORIENTED_EDGE('',*,*,#708,.T.);
#1486 = ORIENTED_EDGE('',*,*,#1446,.F.);
#1487 = ORIENTED_EDGE('',*,*,#240,.F.);
#1488 = CYLINDRICAL_SURFACE('',#1489,1.156298539074);
#1489 = AXIS2_PLACEMENT_3D('',#1490,#1491,#1492);
#1490 = CARTESIAN_POINT('',(128.34370146194,-114.4687014619,0.));
#1491 = DIRECTION('',(0.,0.,-1.));
#1492 = DIRECTION('',(0.999999999119,-4.197709661878E-05,0.));
#1493 = ADVANCED_FACE('',(#1494),#1505,.F.);
#1494 = FACE_BOUND('',#1495,.T.);
#1495 = EDGE_LOOP('',(#1496,#1497,#1498,#1504));
#1496 = ORIENTED_EDGE('',*,*,#1465,.T.);
#1497 = ORIENTED_EDGE('',*,*,#844,.T.);
#1498 = ORIENTED_EDGE('',*,*,#1499,.F.);
#1499 = EDGE_CURVE('',#369,#837,#1500,.T.);
#1500 = LINE('',#1501,#1502);
#1501 = CARTESIAN_POINT('',(202.34375,-134.125,0.));
#1502 = VECTOR('',#1503,1.);
#1503 = DIRECTION('',(0.,0.,1.));
#1504 = ORIENTED_EDGE('',*,*,#376,.F.);
#1505 = CYLINDRICAL_SURFACE('',#1506,1.156298539074);
#1506 = AXIS2_PLACEMENT_3D('',#1507,#1508,#1509);
#1507 = CARTESIAN_POINT('',(202.34370146194,-135.281298538,0.));
#1508 = DIRECTION('',(-0.,-0.,-1.));
#1509 = DIRECTION('',(0.999999999119,4.19770965942E-05,-0.));
#1510 = ADVANCED_FACE('',(#1511),#1522,.T.);
#1511 = FACE_BOUND('',#1512,.T.);
#1512 = EDGE_LOOP('',(#1513,#1519,#1520,#1521));
#1513 = ORIENTED_EDGE('',*,*,#1514,.T.);
#1514 = EDGE_CURVE('',#250,#718,#1515,.T.);
#1515 = LINE('',#1516,#1517);
#1516 = CARTESIAN_POINT('',(129.5,-112.15625,0.));
#1517 = VECTOR('',#1518,1.);
#1518 = DIRECTION('',(0.,0.,1.));
#1519 = ORIENTED_EDGE('',*,*,#717,.T.);
#1520 = ORIENTED_EDGE('',*,*,#1480,.F.);
#1521 = ORIENTED_EDGE('',*,*,#249,.F.);
#1522 = PLANE('',#1523);
#1523 = AXIS2_PLACEMENT_3D('',#1524,#1525,#1526);
#1524 = CARTESIAN_POINT('',(129.5,-112.15625,0.));
#1525 = DIRECTION('',(1.,0.,-0.));
#1526 = DIRECTION('',(0.,-1.,0.));
#1527 = ADVANCED_FACE('',(#1528),#1539,.T.);
#1528 = FACE_BOUND('',#1529,.T.);
#1529 = EDGE_LOOP('',(#1530,#1531,#1532,#1538));
#1530 = ORIENTED_EDGE('',*,*,#1499,.T.);
#1531 = ORIENTED_EDGE('',*,*,#836,.T.);
#1532 = ORIENTED_EDGE('',*,*,#1533,.F.);
#1533 = EDGE_CURVE('',#360,#828,#1534,.T.);
#1534 = LINE('',#1535,#1536);
#1535 = CARTESIAN_POINT('',(186.15625,-134.125,0.));
#1536 = VECTOR('',#1537,1.);
#1537 = DIRECTION('',(0.,0.,1.));
#1538 = ORIENTED_EDGE('',*,*,#368,.F.);
#1539 = PLANE('',#1540);
#1540 = AXIS2_PLACEMENT_3D('',#1541,#1542,#1543);
#1541 = CARTESIAN_POINT('',(202.34375,-134.125,0.));
#1542 = DIRECTION('',(0.,-1.,0.));
#1543 = DIRECTION('',(-1.,0.,0.));
#1544 = ADVANCED_FACE('',(#1545),#1556,.F.);
#1545 = FACE_BOUND('',#1546,.T.);
#1546 = EDGE_LOOP('',(#1547,#1553,#1554,#1555));
#1547 = ORIENTED_EDGE('',*,*,#1548,.T.);
#1548 = EDGE_CURVE('',#258,#726,#1549,.T.);
#1549 = LINE('',#1550,#1551);
#1550 = CARTESIAN_POINT('',(130.65625,-111.,0.));
#1551 = VECTOR('',#1552,1.);
#1552 = DIRECTION('',(0.,0.,1.));
#1553 = ORIENTED_EDGE('',*,*,#725,.T.);
#1554 = ORIENTED_EDGE('',*,*,#1514,.F.);
#1555 = ORIENTED_EDGE('',*,*,#257,.F.);
#1556 = CYLINDRICAL_SURFACE('',#1557,1.156298539074);
#1557 = AXIS2_PLACEMENT_3D('',#1558,#1559,#1560);
#1558 = CARTESIAN_POINT('',(130.65629853805,-112.156298538,0.));
#1559 = DIRECTION('',(-0.,-0.,-1.));
#1560 = DIRECTION('',(-4.19770965942E-05,0.999999999119,0.));
#1561 = ADVANCED_FACE('',(#1562),#1573,.T.);
#1562 = FACE_BOUND('',#1563,.T.);
#1563 = EDGE_LOOP('',(#1564,#1565,#1566,#1572));
#1564 = ORIENTED_EDGE('',*,*,#1533,.T.);
#1565 = ORIENTED_EDGE('',*,*,#827,.T.);
#1566 = ORIENTED_EDGE('',*,*,#1567,.F.);
#1567 = EDGE_CURVE('',#352,#820,#1568,.T.);
#1568 = LINE('',#1569,#1570);
#1569 = CARTESIAN_POINT('',(185.,-132.96875,0.));
#1570 = VECTOR('',#1571,1.);
#1571 = DIRECTION('',(0.,0.,1.));
#1572 = ORIENTED_EDGE('',*,*,#359,.F.);
#1573 = CYLINDRICAL_SURFACE('',#1574,1.156298539074);
#1574 = AXIS2_PLACEMENT_3D('',#1575,#1576,#1577);
#1575 = CARTESIAN_POINT('',(186.15629853805,-132.9687014619,0.));
#1576 = DIRECTION('',(0.,0.,-1.));
#1577 = DIRECTION('',(-4.19770965942E-05,-0.999999999119,-0.));
#1578 = ADVANCED_FACE('',(#1579),#1590,.T.);
#1579 = FACE_BOUND('',#1580,.T.);
#1580 = EDGE_LOOP('',(#1581,#1587,#1588,#1589));
#1581 = ORIENTED_EDGE('',*,*,#1582,.T.);
#1582 = EDGE_CURVE('',#267,#735,#1583,.T.);
#1583 = LINE('',#1584,#1585);
#1584 = CARTESIAN_POINT('',(146.84375,-111.,0.));
#1585 = VECTOR('',#1586,1.);
#1586 = DIRECTION('',(0.,0.,1.));
#1587 = ORIENTED_EDGE('',*,*,#734,.T.);
#1588 = ORIENTED_EDGE('',*,*,#1548,.F.);
#1589 = ORIENTED_EDGE('',*,*,#266,.F.);
#1590 = PLANE('',#1591);
#1591 = AXIS2_PLACEMENT_3D('',#1592,#1593,#1594);
#1592 = CARTESIAN_POINT('',(146.84375,-111.,0.));
#1593 = DIRECTION('',(0.,-1.,0.));
#1594 = DIRECTION('',(-1.,0.,0.));
#1595 = ADVANCED_FACE('',(#1596),#1607,.T.);
#1596 = FACE_BOUND('',#1597,.T.);
#1597 = EDGE_LOOP('',(#1598,#1599,#1600,#1606));
#1598 = ORIENTED_EDGE('',*,*,#1567,.T.);
#1599 = ORIENTED_EDGE('',*,*,#819,.T.);
#1600 = ORIENTED_EDGE('',*,*,#1601,.F.);
#1601 = EDGE_CURVE('',#343,#811,#1602,.T.);
#1602 = LINE('',#1603,#1604);
#1603 = CARTESIAN_POINT('',(185.,-130.65625,0.));
#1604 = VECTOR('',#1605,1.);
#1605 = DIRECTION('',(0.,0.,1.));
#1606 = ORIENTED_EDGE('',*,*,#351,.F.);
#1607 = PLANE('',#1608);
#1608 = AXIS2_PLACEMENT_3D('',#1609,#1610,#1611);
#1609 = CARTESIAN_POINT('',(185.,-132.96875,0.));
#1610 = DIRECTION('',(-1.,0.,0.));
#1611 = DIRECTION('',(0.,1.,0.));
#1612 = ADVANCED_FACE('',(#1613),#1624,.T.);
#1613 = FACE_BOUND('',#1614,.T.);
#1614 = EDGE_LOOP('',(#1615,#1621,#1622,#1623));
#1615 = ORIENTED_EDGE('',*,*,#1616,.T.);
#1616 = EDGE_CURVE('',#275,#743,#1617,.T.);
#1617 = LINE('',#1618,#1619);
#1618 = CARTESIAN_POINT('',(148.,-109.84375,0.));
#1619 = VECTOR('',#1620,1.);
#1620 = DIRECTION('',(0.,0.,1.));
#1621 = ORIENTED_EDGE('',*,*,#742,.T.);
#1622 = ORIENTED_EDGE('',*,*,#1582,.F.);
#1623 = ORIENTED_EDGE('',*,*,#274,.F.);
#1624 = CYLINDRICAL_SURFACE('',#1625,1.156298539074);
#1625 = AXIS2_PLACEMENT_3D('',#1626,#1627,#1628);
#1626 = CARTESIAN_POINT('',(146.84370146194,-109.8437014619,0.));
#1627 = DIRECTION('',(0.,0.,-1.));
#1628 = DIRECTION('',(0.999999999119,-4.197709661878E-05,0.));
#1629 = ADVANCED_FACE('',(#1630),#1641,.F.);
#1630 = FACE_BOUND('',#1631,.T.);
#1631 = EDGE_LOOP('',(#1632,#1633,#1634,#1640));
#1632 = ORIENTED_EDGE('',*,*,#1601,.T.);
#1633 = ORIENTED_EDGE('',*,*,#810,.T.);
#1634 = ORIENTED_EDGE('',*,*,#1635,.F.);
#1635 = EDGE_CURVE('',#335,#803,#1636,.T.);
#1636 = LINE('',#1637,#1638);
#1637 = CARTESIAN_POINT('',(183.84375,-129.5,0.));
#1638 = VECTOR('',#1639,1.);
#1639 = DIRECTION('',(0.,0.,1.));
#1640 = ORIENTED_EDGE('',*,*,#342,.F.);
#1641 = CYLINDRICAL_SURFACE('',#1642,1.156298539074);
#1642 = AXIS2_PLACEMENT_3D('',#1643,#1644,#1645);
#1643 = CARTESIAN_POINT('',(183.84370146194,-130.656298538,0.));
#1644 = DIRECTION('',(-0.,-0.,-1.));
#1645 = DIRECTION('',(0.999999999119,4.19770965942E-05,-0.));
#1646 = ADVANCED_FACE('',(#1647),#1658,.T.);
#1647 = FACE_BOUND('',#1648,.T.);
#1648 = EDGE_LOOP('',(#1649,#1655,#1656,#1657));
#1649 = ORIENTED_EDGE('',*,*,#1650,.T.);
#1650 = EDGE_CURVE('',#284,#752,#1651,.T.);
#1651 = LINE('',#1652,#1653);
#1652 = CARTESIAN_POINT('',(148.,-107.53125,0.));
#1653 = VECTOR('',#1654,1.);
#1654 = DIRECTION('',(0.,0.,1.));
#1655 = ORIENTED_EDGE('',*,*,#751,.T.);
#1656 = ORIENTED_EDGE('',*,*,#1616,.F.);
#1657 = ORIENTED_EDGE('',*,*,#283,.F.);
#1658 = PLANE('',#1659);
#1659 = AXIS2_PLACEMENT_3D('',#1660,#1661,#1662);
#1660 = CARTESIAN_POINT('',(148.,-107.53125,0.));
#1661 = DIRECTION('',(1.,0.,-0.));
#1662 = DIRECTION('',(0.,-1.,0.));
#1663 = ADVANCED_FACE('',(#1664),#1675,.T.);
#1664 = FACE_BOUND('',#1665,.T.);
#1665 = EDGE_LOOP('',(#1666,#1667,#1668,#1674));
#1666 = ORIENTED_EDGE('',*,*,#1635,.T.);
#1667 = ORIENTED_EDGE('',*,*,#802,.T.);
#1668 = ORIENTED_EDGE('',*,*,#1669,.F.);
#1669 = EDGE_CURVE('',#326,#794,#1670,.T.);
#1670 = LINE('',#1671,#1672);
#1671 = CARTESIAN_POINT('',(167.65625,-129.5,0.));
#1672 = VECTOR('',#1673,1.);
#1673 = DIRECTION('',(0.,0.,1.));
#1674 = ORIENTED_EDGE('',*,*,#334,.F.);
#1675 = PLANE('',#1676);
#1676 = AXIS2_PLACEMENT_3D('',#1677,#1678,#1679);
#1677 = CARTESIAN_POINT('',(183.84375,-129.5,0.));
#1678 = DIRECTION('',(0.,-1.,0.));
#1679 = DIRECTION('',(-1.,0.,0.));
#1680 = ADVANCED_FACE('',(#1681),#1692,.F.);
#1681 = FACE_BOUND('',#1682,.T.);
#1682 = EDGE_LOOP('',(#1683,#1689,#1690,#1691));
#1683 = ORIENTED_EDGE('',*,*,#1684,.T.);
#1684 = EDGE_CURVE('',#292,#760,#1685,.T.);
#1685 = LINE('',#1686,#1687);
#1686 = CARTESIAN_POINT('',(149.15625,-106.375,0.));
#1687 = VECTOR('',#1688,1.);
#1688 = DIRECTION('',(0.,0.,1.));
#1689 = ORIENTED_EDGE('',*,*,#759,.T.);
#1690 = ORIENTED_EDGE('',*,*,#1650,.F.);
#1691 = ORIENTED_EDGE('',*,*,#291,.F.);
#1692 = CYLINDRICAL_SURFACE('',#1693,1.156298539074);
#1693 = AXIS2_PLACEMENT_3D('',#1694,#1695,#1696);
#1694 = CARTESIAN_POINT('',(149.15629853805,-107.531298538,0.));
#1695 = DIRECTION('',(-0.,-0.,-1.));
#1696 = DIRECTION('',(-4.19770965942E-05,0.999999999119,0.));
#1697 = ADVANCED_FACE('',(#1698),#1709,.T.);
#1698 = FACE_BOUND('',#1699,.T.);
#1699 = EDGE_LOOP('',(#1700,#1701,#1702,#1708));
#1700 = ORIENTED_EDGE('',*,*,#1669,.T.);
#1701 = ORIENTED_EDGE('',*,*,#793,.T.);
#1702 = ORIENTED_EDGE('',*,*,#1703,.F.);
#1703 = EDGE_CURVE('',#318,#786,#1704,.T.);
#1704 = LINE('',#1705,#1706);
#1705 = CARTESIAN_POINT('',(166.5,-128.34375,0.));
#1706 = VECTOR('',#1707,1.);
#1707 = DIRECTION('',(0.,0.,1.));
#1708 = ORIENTED_EDGE('',*,*,#325,.F.);
#1709 = CYLINDRICAL_SURFACE('',#1710,1.156298539074);
#1710 = AXIS2_PLACEMENT_3D('',#1711,#1712,#1713);
#1711 = CARTESIAN_POINT('',(167.65629853805,-128.3437014619,0.));
#1712 = DIRECTION('',(0.,0.,-1.));
#1713 = DIRECTION('',(-4.19770965942E-05,-0.999999999119,-0.));
#1714 = ADVANCED_FACE('',(#1715),#1726,.T.);
#1715 = FACE_BOUND('',#1716,.T.);
#1716 = EDGE_LOOP('',(#1717,#1723,#1724,#1725));
#1717 = ORIENTED_EDGE('',*,*,#1718,.T.);
#1718 = EDGE_CURVE('',#301,#769,#1719,.T.);
#1719 = LINE('',#1720,#1721);
#1720 = CARTESIAN_POINT('',(165.34375,-106.375,0.));
#1721 = VECTOR('',#1722,1.);
#1722 = DIRECTION('',(0.,0.,1.));
#1723 = ORIENTED_EDGE('',*,*,#768,.T.);
#1724 = ORIENTED_EDGE('',*,*,#1684,.F.);
#1725 = ORIENTED_EDGE('',*,*,#300,.F.);
#1726 = PLANE('',#1727);
#1727 = AXIS2_PLACEMENT_3D('',#1728,#1729,#1730);
#1728 = CARTESIAN_POINT('',(165.34375,-106.375,0.));
#1729 = DIRECTION('',(0.,-1.,0.));
#1730 = DIRECTION('',(-1.,0.,0.));
#1731 = ADVANCED_FACE('',(#1732),#1743,.T.);
#1732 = FACE_BOUND('',#1733,.T.);
#1733 = EDGE_LOOP('',(#1734,#1735,#1736,#1742));
#1734 = ORIENTED_EDGE('',*,*,#1703,.T.);
#1735 = ORIENTED_EDGE('',*,*,#785,.T.);
#1736 = ORIENTED_EDGE('',*,*,#1737,.F.);
#1737 = EDGE_CURVE('',#309,#777,#1738,.T.);
#1738 = LINE('',#1739,#1740);
#1739 = CARTESIAN_POINT('',(166.5,-107.53125,0.));
#1740 = VECTOR('',#1741,1.);
#1741 = DIRECTION('',(0.,0.,1.));
#1742 = ORIENTED_EDGE('',*,*,#317,.F.);
#1743 = PLANE('',#1744);
#1744 = AXIS2_PLACEMENT_3D('',#1745,#1746,#1747);
#1745 = CARTESIAN_POINT('',(166.5,-128.34375,0.));
#1746 = DIRECTION('',(-1.,0.,0.));
#1747 = DIRECTION('',(0.,1.,0.));
#1748 = ADVANCED_FACE('',(#1749),#1755,.F.);
#1749 = FACE_BOUND('',#1750,.T.);
#1750 = EDGE_LOOP('',(#1751,#1752,#1753,#1754));
#1751 = ORIENTED_EDGE('',*,*,#1737,.T.);
#1752 = ORIENTED_EDGE('',*,*,#776,.T.);
#1753 = ORIENTED_EDGE('',*,*,#1718,.F.);
#1754 = ORIENTED_EDGE('',*,*,#308,.F.);
#1755 = CYLINDRICAL_SURFACE('',#1756,1.156298539074);
#1756 = AXIS2_PLACEMENT_3D('',#1757,#1758,#1759);
#1757 = CARTESIAN_POINT('',(165.34370146194,-107.531298538,0.));
#1758 = DIRECTION('',(-0.,-0.,-1.));
#1759 = DIRECTION('',(0.999999999119,4.197709661878E-05,-0.));
#1760 = ADVANCED_FACE('',(#1761),#1772,.F.);
#1761 = FACE_BOUND('',#1762,.T.);
#1762 = EDGE_LOOP('',(#1763,#1764,#1770,#1771));
#1763 = ORIENTED_EDGE('',*,*,#488,.T.);
#1764 = ORIENTED_EDGE('',*,*,#1765,.T.);
#1765 = EDGE_CURVE('',#489,#957,#1766,.T.);
#1766 = LINE('',#1767,#1768);
#1767 = CARTESIAN_POINT('',(129.5,-93.6,-4.6E-02));
#1768 = VECTOR('',#1769,1.);
#1769 = DIRECTION('',(0.,0.,1.));
#1770 = ORIENTED_EDGE('',*,*,#956,.F.);
#1771 = ORIENTED_EDGE('',*,*,#1765,.F.);
#1772 = CYLINDRICAL_SURFACE('',#1773,1.1);
#1773 = AXIS2_PLACEMENT_3D('',#1774,#1775,#1776);
#1774 = CARTESIAN_POINT('',(129.5,-92.5,-4.6E-02));
#1775 = DIRECTION('',(-0.,-0.,-1.));
#1776 = DIRECTION('',(-0.,-1.,0.));
#1777 = ADVANCED_FACE('',(#1778),#1789,.F.);
#1778 = FACE_BOUND('',#1779,.T.);
#1779 = EDGE_LOOP('',(#1780,#1781,#1787,#1788));
#1780 = ORIENTED_EDGE('',*,*,#499,.T.);
#1781 = ORIENTED_EDGE('',*,*,#1782,.T.);
#1782 = EDGE_CURVE('',#500,#968,#1783,.T.);
#1783 = LINE('',#1784,#1785);
#1784 = CARTESIAN_POINT('',(185.,-112.1,-4.6E-02));
#1785 = VECTOR('',#1786,1.);
#1786 = DIRECTION('',(0.,0.,1.));
#1787 = ORIENTED_EDGE('',*,*,#967,.F.);
#1788 = ORIENTED_EDGE('',*,*,#1782,.F.);
#1789 = CYLINDRICAL_SURFACE('',#1790,1.1);
#1790 = AXIS2_PLACEMENT_3D('',#1791,#1792,#1793);
#1791 = CARTESIAN_POINT('',(185.,-111.,-4.6E-02));
#1792 = DIRECTION('',(-0.,-0.,-1.));
#1793 = DIRECTION('',(-0.,-1.,0.));
#1794 = ADVANCED_FACE('',(#1795),#1806,.F.);
#1795 = FACE_BOUND('',#1796,.T.);
#1796 = EDGE_LOOP('',(#1797,#1798,#1804,#1805));
#1797 = ORIENTED_EDGE('',*,*,#510,.T.);
#1798 = ORIENTED_EDGE('',*,*,#1799,.T.);
#1799 = EDGE_CURVE('',#511,#979,#1800,.T.);
#1800 = LINE('',#1801,#1802);
#1801 = CARTESIAN_POINT('',(203.5,-116.725,-4.6E-02));
#1802 = VECTOR('',#1803,1.);
#1803 = DIRECTION('',(0.,0.,1.));
#1804 = ORIENTED_EDGE('',*,*,#978,.F.);
#1805 = ORIENTED_EDGE('',*,*,#1799,.F.);
#1806 = CYLINDRICAL_SURFACE('',#1807,1.1);
#1807 = AXIS2_PLACEMENT_3D('',#1808,#1809,#1810);
#1808 = CARTESIAN_POINT('',(203.5,-115.625,-4.6E-02));
#1809 = DIRECTION('',(-0.,-0.,-1.));
#1810 = DIRECTION('',(-0.,-1.,0.));
#1811 = ADVANCED_FACE('',(#1812),#1823,.F.);
#1812 = FACE_BOUND('',#1813,.T.);
#1813 = EDGE_LOOP('',(#1814,#1815,#1821,#1822));
#1814 = ORIENTED_EDGE('',*,*,#521,.T.);
#1815 = ORIENTED_EDGE('',*,*,#1816,.T.);
#1816 = EDGE_CURVE('',#522,#990,#1817,.T.);
#1817 = LINE('',#1818,#1819);
#1818 = CARTESIAN_POINT('',(203.5,-98.138506,-4.6E-02));
#1819 = VECTOR('',#1820,1.);
#1820 = DIRECTION('',(0.,0.,1.));
#1821 = ORIENTED_EDGE('',*,*,#989,.F.);
#1822 = ORIENTED_EDGE('',*,*,#1816,.F.);
#1823 = CYLINDRICAL_SURFACE('',#1824,1.1);
#1824 = AXIS2_PLACEMENT_3D('',#1825,#1826,#1827);
#1825 = CARTESIAN_POINT('',(203.5,-97.038506,-4.6E-02));
#1826 = DIRECTION('',(-0.,-0.,-1.));
#1827 = DIRECTION('',(-0.,-1.,0.));
#1828 = ADVANCED_FACE('',(#1829),#1840,.F.);
#1829 = FACE_BOUND('',#1830,.T.);
#1830 = EDGE_LOOP('',(#1831,#1832,#1838,#1839));
#1831 = ORIENTED_EDGE('',*,*,#532,.T.);
#1832 = ORIENTED_EDGE('',*,*,#1833,.T.);
#1833 = EDGE_CURVE('',#533,#1001,#1834,.T.);
#1834 = LINE('',#1835,#1836);
#1835 = CARTESIAN_POINT('',(148.,-88.975,-4.6E-02));
#1836 = VECTOR('',#1837,1.);
#1837 = DIRECTION('',(0.,0.,1.));
#1838 = ORIENTED_EDGE('',*,*,#1000,.F.);
#1839 = ORIENTED_EDGE('',*,*,#1833,.F.);
#1840 = CYLINDRICAL_SURFACE('',#1841,1.1);
#1841 = AXIS2_PLACEMENT_3D('',#1842,#1843,#1844);
#1842 = CARTESIAN_POINT('',(148.,-87.875,-4.6E-02));
#1843 = DIRECTION('',(-0.,-0.,-1.));
#1844 = DIRECTION('',(-0.,-1.,0.));
#1845 = ADVANCED_FACE('',(#1846),#1857,.F.);
#1846 = FACE_BOUND('',#1847,.T.);
#1847 = EDGE_LOOP('',(#1848,#1849,#1855,#1856));
#1848 = ORIENTED_EDGE('',*,*,#543,.T.);
#1849 = ORIENTED_EDGE('',*,*,#1850,.T.);
#1850 = EDGE_CURVE('',#544,#1012,#1851,.T.);
#1851 = LINE('',#1852,#1853);
#1852 = CARTESIAN_POINT('',(129.5,-75.1,-4.6E-02));
#1853 = VECTOR('',#1854,1.);
#1854 = DIRECTION('',(0.,0.,1.));
#1855 = ORIENTED_EDGE('',*,*,#1011,.F.);
#1856 = ORIENTED_EDGE('',*,*,#1850,.F.);
#1857 = CYLINDRICAL_SURFACE('',#1858,1.1);
#1858 = AXIS2_PLACEMENT_3D('',#1859,#1860,#1861);
#1859 = CARTESIAN_POINT('',(129.5,-74.,-4.6E-02));
#1860 = DIRECTION('',(-0.,-0.,-1.));
#1861 = DIRECTION('',(-0.,-1.,0.));
#1862 = ADVANCED_FACE('',(#1863),#1874,.F.);
#1863 = FACE_BOUND('',#1864,.T.);
#1864 = EDGE_LOOP('',(#1865,#1866,#1872,#1873));
#1865 = ORIENTED_EDGE('',*,*,#554,.T.);
#1866 = ORIENTED_EDGE('',*,*,#1867,.T.);
#1867 = EDGE_CURVE('',#555,#1023,#1868,.T.);
#1868 = LINE('',#1869,#1870);
#1869 = CARTESIAN_POINT('',(148.,-70.475,-4.6E-02));
#1870 = VECTOR('',#1871,1.);
#1871 = DIRECTION('',(0.,0.,1.));
#1872 = ORIENTED_EDGE('',*,*,#1022,.F.);
#1873 = ORIENTED_EDGE('',*,*,#1867,.F.);
#1874 = CYLINDRICAL_SURFACE('',#1875,1.1);
#1875 = AXIS2_PLACEMENT_3D('',#1876,#1877,#1878);
#1876 = CARTESIAN_POINT('',(148.,-69.375,-4.6E-02));
#1877 = DIRECTION('',(-0.,-0.,-1.));
#1878 = DIRECTION('',(-0.,-1.,0.));
#1879 = ADVANCED_FACE('',(#1880),#1891,.F.);
#1880 = FACE_BOUND('',#1881,.T.);
#1881 = EDGE_LOOP('',(#1882,#1883,#1889,#1890));
#1882 = ORIENTED_EDGE('',*,*,#565,.T.);
#1883 = ORIENTED_EDGE('',*,*,#1884,.T.);
#1884 = EDGE_CURVE('',#566,#1034,#1885,.T.);
#1885 = LINE('',#1886,#1887);
#1886 = CARTESIAN_POINT('',(166.5,-88.975,-4.6E-02));
#1887 = VECTOR('',#1888,1.);
#1888 = DIRECTION('',(0.,0.,1.));
#1889 = ORIENTED_EDGE('',*,*,#1033,.F.);
#1890 = ORIENTED_EDGE('',*,*,#1884,.F.);
#1891 = CYLINDRICAL_SURFACE('',#1892,1.1);
#1892 = AXIS2_PLACEMENT_3D('',#1893,#1894,#1895);
#1893 = CARTESIAN_POINT('',(166.5,-87.875,-4.6E-02));
#1894 = DIRECTION('',(-0.,-0.,-1.));
#1895 = DIRECTION('',(-0.,-1.,0.));
#1896 = ADVANCED_FACE('',(#1897),#1908,.F.);
#1897 = FACE_BOUND('',#1898,.T.);
#1898 = EDGE_LOOP('',(#1899,#1900,#1906,#1907));
#1899 = ORIENTED_EDGE('',*,*,#576,.T.);
#1900 = ORIENTED_EDGE('',*,*,#1901,.T.);
#1901 = EDGE_CURVE('',#577,#1045,#1902,.T.);
#1902 = LINE('',#1903,#1904);
#1903 = CARTESIAN_POINT('',(166.5,-70.475,-4.6E-02));
#1904 = VECTOR('',#1905,1.);
#1905 = DIRECTION('',(0.,0.,1.));
#1906 = ORIENTED_EDGE('',*,*,#1044,.F.);
#1907 = ORIENTED_EDGE('',*,*,#1901,.F.);
#1908 = CYLINDRICAL_SURFACE('',#1909,1.1);
#1909 = AXIS2_PLACEMENT_3D('',#1910,#1911,#1912);
#1910 = CARTESIAN_POINT('',(166.5,-69.375,-4.6E-02));
#1911 = DIRECTION('',(-0.,-0.,-1.));
#1912 = DIRECTION('',(-0.,-1.,0.));
#1913 = ADVANCED_FACE('',(#1914),#1925,.F.);
#1914 = FACE_BOUND('',#1915,.T.);
#1915 = EDGE_LOOP('',(#1916,#1917,#1923,#1924));
#1916 = ORIENTED_EDGE('',*,*,#587,.T.);
#1917 = ORIENTED_EDGE('',*,*,#1918,.T.);
#1918 = EDGE_CURVE('',#588,#1056,#1919,.T.);
#1919 = LINE('',#1920,#1921);
#1920 = CARTESIAN_POINT('',(185.,-75.1,-4.6E-02));
#1921 = VECTOR('',#1922,1.);
#1922 = DIRECTION('',(0.,0.,1.));
#1923 = ORIENTED_EDGE('',*,*,#1055,.F.);
#1924 = ORIENTED_EDGE('',*,*,#1918,.F.);
#1925 = CYLINDRICAL_SURFACE('',#1926,1.1);
#1926 = AXIS2_PLACEMENT_3D('',#1927,#1928,#1929);
#1927 = CARTESIAN_POINT('',(185.,-74.,-4.6E-02));
#1928 = DIRECTION('',(-0.,-0.,-1.));
#1929 = DIRECTION('',(-0.,-1.,0.));
#1930 = ( GEOMETRIC_REPRESENTATION_CONTEXT(3) 
GLOBAL_UNCERTAINTY_ASSIGNED_CONTEXT((#1934)) 
GLOBAL_UNIT_ASSIGNED_CONTEXT((#1931,#1932,#1933)) REPRESENTATION_CONTEXT
('Context #1','3D Context with UNIT and UNCERTAINTY') );
#1931 = ( LENGTH_UNIT() NAMED_UNIT(*) SI_UNIT(.MILLI.,.METRE.) );
#1932 = ( NAMED_UNIT(*) PLANE_ANGLE_UNIT() SI_UNIT($,.RADIAN.) );
#1933 = ( NAMED_UNIT(*) SI_UNIT($,.STERADIAN.) SOLID_ANGLE_UNIT() );
#1934 = UNCERTAINTY_MEASURE_WITH_UNIT(LENGTH_MEASURE(1.E-07),#1931,
  'distance_accuracy_value','confusion accuracy');
#1935 = SHAPE_DEFINITION_REPRESENTATION(#1936,#25);
#1936 = PRODUCT_DEFINITION_SHAPE('','',#1937);
#1937 = PRODUCT_DEFINITION('design','',#1938,#1941);
#1938 = PRODUCT_DEFINITION_FORMATION('','',#1939);
#1939 = PRODUCT('Low3xD_BP_PCB','Low3xD_BP_PCB','',(#1940));
#1940 = PRODUCT_CONTEXT('',#2,'mechanical');
#1941 = PRODUCT_DEFINITION_CONTEXT('part definition',#2,'design');
#1942 = CONTEXT_DEPENDENT_SHAPE_REPRESENTATION(#1943,#1945);
#1943 = ( REPRESENTATION_RELATIONSHIP('','',#25,#10) 
REPRESENTATION_RELATIONSHIP_WITH_TRANSFORMATION(#1944) 
SHAPE_REPRESENTATION_RELATIONSHIP() );
#1944 = ITEM_DEFINED_TRANSFORMATION('','',#11,#15);
#1945 = PRODUCT_DEFINITION_SHAPE('Placement','Placement of an item',
  #1946);
#1946 = NEXT_ASSEMBLY_USAGE_OCCURRENCE('1','','',#5,#1937,$);
#1947 = PRODUCT_RELATED_PRODUCT_CATEGORY('part',$,(#1939));
ENDSEC;
END-ISO-10303-21;
